/* XPM */
static char *result[] = {
/* columns rows colors chars-per-pixel */
"16 16 60 1 ",
"  c black",
". c #010000",
"X c #000100",
"o c #010100",
"O c #000001",
"+ c #010001",
"@ c #000101",
"# c #010101",
"$ c #020000",
"% c #000200",
"& c #020200",
"* c #000202",
"= c #020202",
"- c #020302",
"; c #040404",
": c #050404",
"> c #050504",
", c #050405",
"< c gray2",
"1 c #060607",
"2 c #070607",
"3 c gray4",
"4 c #0A0B0A",
"5 c #1B1A1B",
"6 c #1B1B1B",
"7 c #1C1D1D",
"8 c #1D1D1D",
"9 c #212020",
"0 c #222222",
"q c #222223",
"w c #4B4A4A",
"e c #4B4B4A",
"r c #505050",
"t c #575657",
"y c #565757",
"u c #5B5A5A",
"i c #5E5F5E",
"p c #5E5F5F",
"a c #646265",
"s c #646464",
"d c #646564",
"f c #AFAEAE",
"g c #E3E3E2",
"h c gray89",
"j c #E5E7E4",
"k c #E5E6E5",
"l c #E6E6E5",
"z c #E6E4E6",
"x c #E6E5E6",
"c c #E4E6E6",
"v c #E5E6E6",
"b c #E5E7E6",
"n c #E5E6E7",
"m c #E6E6E6",
"M c #E7E6E6",
"N c #E6E7E6",
"B c #E7E7E6",
"V c #E6E6E7",
"C c #E7E6E7",
"Z c None",
/* pixels */
"ZZZZZ*X O &ZZZZZ",
"ZZZ%@  +.X  %ZZZ",
"ZZO.OO  .. O. ZZ",
"Z  +rgmMlBjge  Z",
"Z#  aC0768094 oZ",
"    um X . X  + ",
"X   tmOOo X  .  ",
" X opM1,=;, .  X",
"oO.XsVmmcmf@    ",
".XOXiN2<->:.O   ",
"$ Ooyz OX.X O  %",
"Z  @ub O @X+XXOZ",
"Z  Odk0858q93. Z",
"ZZOOrgmxVnvhwXZZ",
"ZZZ +  #.O  %ZZZ",
"ZZZZZ$ OX. ZZZZZ"
};
