/* XPM */
static char *result[] = {
/* columns rows colors chars-per-pixel */
"16 16 63 1 ",
"  c black",
". c #010000",
"X c #000100",
"o c #010100",
"O c #000001",
"+ c #010001",
"@ c #000101",
"# c #010101",
"$ c #020000",
"% c #000200",
"& c #020200",
"* c #000002",
"= c #020203",
"- c gray1",
"; c #070607",
": c #090808",
"> c #171716",
", c gray9",
"< c #212120",
"1 c #202021",
"2 c #333332",
"3 c #323233",
"4 c #323333",
"5 c #3A3A3A",
"6 c #3B3A3A",
"7 c #3A3B3A",
"8 c #3B3B3A",
"9 c #3A3A3B",
"0 c #3A3B3B",
"q c gray32",
"w c #555555",
"e c #565656",
"r c gray35",
"t c #848584",
"y c #888886",
"u c #A0A0A0",
"i c #A0A0A1",
"p c #A9A8A9",
"a c #AAABAC",
"s c #CBCACA",
"d c #CBCBCA",
"f c #CBCBCB",
"g c #CCCCCB",
"h c #CECDCE",
"j c #D9D8D9",
"k c gray85",
"l c #DBDADB",
"z c gray86",
"x c gray88",
"c c #E0E1E0",
"v c #E5E6E4",
"b c #E6E6E5",
"n c #E7E6E5",
"m c #E7E7E5",
"M c #E4E5E6",
"N c #E6E4E6",
"B c #E4E6E6",
"V c #E5E6E6",
"C c #E6E6E6",
"Z c #E7E6E6",
"A c #E6E6E7",
"S c #E7E6E7",
"D c None",
/* pixels */
"DDDDD*XX . DDDDD",
"DDD . X  O X$DDD",
"DD X#X OXX+# #DD",
"D% 3gr   O d4  D",
"DO 5Cl1   @m6. D",
" O@5Zku   OV0+#*",
"   5N>dy:  A7O  ",
"X.+6n qca= Z5   ",
"X. 5S -pxwOB7   ",
"  X6Z. ;ts,b9O. ",
"%  8v+O #ijM6 o%",
"D +5VX X <zS7.XD",
"D O2f.#  +eh2 &D",
"DD.O#  o.X X+oDD",
"DDD$++@ O X $DDD",
"DDDDD% o @ DDDDD"
};
