/* XPM */
static char *result[] = {
/* columns rows colors chars-per-pixel */
"16 16 90 1 ",
"  c black",
". c #010000",
"X c #000100",
"o c #010100",
"O c #000001",
"+ c #010001",
"@ c #000101",
"# c #010101",
"$ c #020000",
"% c #000200",
"& c #020200",
"* c #000002",
"= c #030202",
"- c #020203",
"; c gray1",
": c #050404",
"> c #040504",
", c #050405",
"< c #070606",
"1 c #080909",
"2 c #090909",
"3 c #09080B",
"4 c gray4",
"5 c #0A0B0A",
"6 c #0B0B0A",
"7 c #0A0B0B",
"8 c #0C0D0D",
"9 c #0E0E0D",
"0 c #0E0E0E",
"q c #101111",
"w c #131213",
"e c #161616",
"r c #242425",
"t c #262525",
"y c gray15",
"u c #272627",
"i c #303131",
"p c #494848",
"a c #4B4B4A",
"s c #575756",
"d c gray34",
"f c #6B6A6A",
"g c #727372",
"h c #727273",
"j c gray46",
"k c #767675",
"l c #777576",
"z c #777677",
"x c #7A7B7B",
"c c #7E7E7F",
"v c #929292",
"b c #969695",
"n c #A5A3A4",
"m c gray66",
"M c #A8A8A9",
"N c #ABA9AA",
"B c #AEB0B0",
"V c #B1B2B2",
"C c #B3B3B2",
"Z c #B5B4B4",
"A c #B6B7B5",
"S c #B5B6B7",
"D c #BBBABA",
"F c #BCBCBC",
"G c #BCBCBD",
"H c #C4C5C5",
"J c #C6C7C7",
"K c #C8C8C8",
"L c gray79",
"P c #C9CACB",
"I c #CBCACB",
"U c #CDCDCC",
"Y c #D0D1D0",
"T c #D3D2D2",
"R c LightGray",
"E c #D5D4D3",
"W c #D5D5D4",
"Q c #D4D5D5",
"! c gray84",
"~ c #D7D7D6",
"^ c #D8D8D8",
"/ c #DDDDDC",
"( c #DEDEDF",
") c #E0E1E1",
"_ c #E2E2E2",
"` c gray89",
"' c #E4E3E5",
"] c #E4E4E4",
"[ c gray90",
"{ c None",
/* pixels */
"{{{{{$ OO. {{{{{",
"{{{ .+   O+X*{{{",
"{{ .4jH)^Gx0O {{",
"{  ;vQCnmAFu.O {",
"{..1Rk5+,9e= o {",
"  +7(dO@@.X.+XX*",
"O X3S!ht#+ X XXo",
" XO+aI]_Jlw+   .",
"@  #OwzL`[Pp@ +O",
"  @X. ++yg~Z1.  ",
"&O  . X. Xs/6XO*",
"{OO-irq<>7hT2+ {",
"{ +1KYDNMVEb:O${",
"{{.X0fBW'Uc8++{{",
"{{{  +O+ #  *{{{",
"{{{{{  @  %{{{{{"
};
