/* XPM */
static char *result[] = {
/* columns rows colors chars-per-pixel */
"16 16 103 2 ",
"   c black",
".  c #010000",
"X  c #000100",
"o  c #010100",
"O  c #000001",
"+  c #010001",
"@  c #000101",
"#  c #010101",
"$  c #020000",
"%  c #020101",
"&  c #000200",
"*  c #020200",
"=  c #000002",
"-  c #020002",
";  c #000202",
":  c #030203",
">  c #040404",
",  c gray2",
"<  c #070806",
"1  c #090908",
"2  c #090909",
"3  c #0B0B0B",
"4  c #0F0E0E",
"5  c #0E0E0F",
"6  c #131312",
"7  c #141313",
"8  c #151415",
"9  c #141615",
"0  c #161616",
"q  c #1B1A1A",
"w  c #1D1D1C",
"e  c #1C1C1D",
"r  c #1E1F21",
"t  c #212021",
"y  c gray14",
"u  c #282928",
"i  c #2C2C2C",
"p  c #333433",
"a  c #393839",
"s  c #3A3B3B",
"d  c gray23",
"f  c #3D3B3B",
"g  c #3C3D3D",
"h  c #3F3F3F",
"j  c #4C4A4B",
"k  c #505050",
"l  c #555555",
"z  c #565556",
"x  c #565657",
"c  c #5A5B5B",
"v  c #5C5A5A",
"b  c #5B5C5B",
"n  c #5C5D5C",
"m  c #5C5C5D",
"M  c #616060",
"N  c #616361",
"B  c #606163",
"V  c #646464",
"C  c #676766",
"Z  c #747273",
"A  c #787777",
"S  c #808080",
"D  c #848585",
"F  c #868686",
"G  c #8B8A8B",
"H  c #949595",
"J  c gray63",
"K  c #A4A4A5",
"L  c gray65",
"P  c #ABABAA",
"I  c #ADACAC",
"U  c #B2B2B2",
"Y  c #B4B4B4",
"T  c #B5B5B4",
"R  c gray73",
"E  c gray75",
"W  c #C6C6C6",
"Q  c #C6C7C6",
"!  c #CBCACA",
"~  c #CDCCCC",
"^  c #CDCDCC",
"/  c #CECECE",
"(  c #CFCECF",
")  c #D2D3D2",
"_  c gray83",
"`  c #D8D8D8",
"'  c #DADBDB",
"]  c gainsboro",
"[  c gray87",
"{  c #DFDEDE",
"}  c #DFDFDF",
"|  c gray88",
" . c #E0E1E1",
".. c #E2E2E2",
"X. c gray89",
"o. c #E5E4E4",
"O. c #E4E5E4",
"+. c #E5E5E4",
"@. c gray90",
"#. c #E6E6E6",
"$. c #E6E7E6",
"%. c #E6E6E7",
"&. c None",
/* pixels */
"&.&.&.&.&.* X X   O ; &.&.&.&.&.",
"&.&.&.;   o . @ o X X   $ &.&.&.",
"&.&.. X + O @ X X O @ . .   &.&.",
"&.& 5 b h O 3 l x 4 o f v 5 ; &.",
"&.X t ( E   p ! / d O R ^ r + &.",
"  X 8 U %.q m { { N e O.P 7 . ; ",
"X   2 G #.n D +.#.F C +.S ,   X ",
"+ . # V | K I ` X.P Y ] z + O X ",
"X @ + g _ } ` H T ' ..~ u .   . ",
"O . . 0 W #.@.k A $.%.U < o . . ",
"-     % J #.) y a o.#.Z X +   ; ",
"&.+ X . M  .L 6 w Q [ i O   O &.",
"&.= @ # 9 B s > 1 j c : O X   &.",
"&.&.O   X + O     . . X . O &.&.",
"&.&.&.= X X o .   X .     &.&.&.",
"&.&.&.&.&.; @ O o X - &.&.&.&.&."
};
