/* XPM */
static char *_22f6c455bc44933e680b08bad17e8belT774cfiyd5WNfva[] = {
/* columns rows colors chars-per-pixel */
"64 64 256 2 ",
"   c #3A1200",
".  c #370D00",
"X  c #3E2506",
"o  c #481801",
"O  c #531C01",
"+  c #5C1C02",
"@  c #561602",
"#  c #450E00",
"$  c #631C01",
"%  c #6A1E02",
"&  c #661805",
"*  c #731D01",
"=  c #7A1D03",
"-  c #4C2606",
";  c #5C2302",
":  c #5C2C0B",
">  c #582707",
",  c #5C330C",
"<  c #5A3817",
"1  c #572D13",
"2  c #642403",
"3  c #6C2403",
"4  c #6B2B04",
"5  c #64240B",
"6  c #6C2409",
"7  c #642B0B",
"8  c #6D2C0C",
"9  c #622B05",
"0  c #732403",
"q  c #7C2404",
"w  c #742B03",
"e  c #7C2B04",
"r  c #74250A",
"t  c #7C2609",
"y  c #732D0B",
"u  c #7B2C0B",
"i  c #6B320C",
"p  c #663309",
"a  c #74330D",
"s  c #7D330B",
"d  c #79370B",
"f  c #662B12",
"g  c #772B13",
"h  c #643313",
"j  c #6C3414",
"k  c #6D3C14",
"l  c #653B1B",
"z  c #6C3C1C",
"x  c #663818",
"c  c #743413",
"v  c #7B3413",
"b  c #743C15",
"n  c #7B3B14",
"m  c #733C1B",
"M  c #7B3C1A",
"N  c #763619",
"B  c #673D23",
"V  c #793D22",
"C  c #593620",
"Z  c #5C411C",
"A  c #6C431C",
"S  c #67441B",
"D  c #73431C",
"F  c #7C431C",
"G  c #784517",
"H  c #6A4726",
"J  c #744423",
"K  c #7B4423",
"L  c #744B25",
"P  c #7C4B23",
"I  c #7C4B2A",
"U  c #744A2A",
"Y  c #7C532B",
"T  c #75562C",
"R  c #7A5935",
"E  c #734E32",
"W  c #7E633C",
"Q  c #5D4322",
"!  c #796343",
"~  c #821E06",
"^  c #832C04",
"/  c #832B0B",
"(  c #8B2B0B",
")  c #882606",
"_  c #932D0C",
"`  c #972B06",
"'  c #84340C",
"]  c #8B330C",
"[  c #873609",
"{  c #93320B",
"}  c #9B330C",
"|  c #96360B",
" . c #872B12",
".. c #833412",
"X. c #8B3413",
"o. c #843C14",
"O. c #8B3B14",
"+. c #833D1A",
"@. c #8C3C1B",
"#. c #893419",
"$. c #933513",
"%. c #933C14",
"&. c #9A3B12",
"*. c #983A18",
"=. c #972F11",
"-. c #A5370B",
";. c #A43B13",
":. c #A83815",
">. c #AC3611",
",. c #8D3F22",
"<. c #834114",
"1. c #84441C",
"2. c #8B441B",
"3. c #8B4719",
"4. c #93431B",
"5. c #9B441B",
"6. c #944A1C",
"7. c #9A4B1C",
"8. c #974214",
"9. c #9A4D14",
"0. c #A9450E",
"q. c #B4450D",
"w. c #A4451B",
"e. c #A84719",
"r. c #B64918",
"t. c #B8541D",
"y. c #AA511B",
"u. c #834422",
"i. c #8B4523",
"p. c #844B24",
"a. c #8C4B24",
"s. c #834C2B",
"d. c #8B4C2B",
"f. c #844529",
"g. c #944C24",
"h. c #9A4B23",
"j. c #964826",
"k. c #84522B",
"l. c #8B532C",
"z. c #895629",
"x. c #94532C",
"c. c #9C542B",
"v. c #975628",
"b. c #855432",
"n. c #845A34",
"m. c #8C5B33",
"M. c #885938",
"N. c #935C34",
"B. c #9B5B33",
"V. c #955836",
"C. c #874F33",
"Z. c #AB4D24",
"A. c #A54B26",
"S. c #A65629",
"D. c #B65428",
"F. c #A25C33",
"G. c #A85A33",
"H. c #B5502A",
"J. c #88653A",
"K. c #9C6236",
"L. c #93643B",
"P. c #9B643B",
"I. c #986739",
"U. c #986A35",
"Y. c #A6653A",
"T. c #B8653A",
"R. c #A8612D",
"E. c #C5521A",
"W. c #C95424",
"Q. c #D96628",
"!. c #895D41",
"~. c #995F43",
"^. c #8B6846",
"/. c #9B6543",
"(. c #9B6C44",
"). c #966A47",
"_. c #8A714B",
"`. c #9C724C",
"'. c #97744A",
"]. c #897452",
"[. c #9B7C5A",
"{. c #997854",
"}. c #8B6C51",
"|. c #A36C43",
" X c #AA6B43",
".X c #A66947",
"XX c #AC744C",
"oX c #A77549",
"OX c #B4764B",
"+X c #A37C53",
"@X c #A87A56",
"#X c #B77C55",
"$X c #B46A48",
"%X c #AA7D62",
"&X c #C7794F",
"*X c #9C835A",
"=X c #8B8354",
"-X c #AB835B",
";X c #A5855B",
":X c #B7855A",
">X c #AF814E",
",X c #9B8662",
"<X c #AB8B64",
"1X c #A78965",
"2X c #B68A65",
"3X c #A9936A",
"4X c #B4936C",
"5X c #BB946C",
"6X c #B89669",
"7X c #BC9B73",
"8X c #B79A76",
"9X c #B38F71",
"0X c #BBA379",
"qX c #B9A26E",
"wX c #C9865A",
"eX c #C38A66",
"rX c #C6966B",
"tX c #C59A75",
"yX c #D6966C",
"uX c #CCA47B",
"iX c #C7A578",
"pX c #D6A77B",
"aX c #CEA572",
"sX c #E9AC7D",
"dX c #E29B72",
"fX c #BDB087",
"gX c #CBAC84",
"hX c #C7A984",
"jX c #D4AC84",
"kX c #D6AC88",
"lX c #CCB38D",
"zX c #C5B68A",
"xX c #D4B48B",
"cX c #DCBA8D",
"vX c #D8B489",
"bX c #DBBB92",
"nX c #D7BA95",
"mX c #CDBA90",
"MX c #E5B68A",
"NX c #E6BC95",
"BX c #EDB68C",
"VX c #C99D82",
"CX c #DAC398",
"ZX c #E5C499",
"AX c #F4C69A",
"SX c #F7D29B",
"DX c #DDCAA1",
"FX c #E8CAA3",
"GX c #F6C9A6",
"HX c #ECD2A9",
"JX c #F6D4A9",
"KX c #F9D9B4",
"LX c #E6DAB1",
"PX c #FEE4BA",
"IX c #FFE0AB",
"UX c #FFE2C5",
/* pixels */
"<.s s / O.o.o.s d G.D.;.q.r.t.y.e.e.D.w.*.A.h.O.&.} >.} $.M {.J.0 { >.>.-.` ` ` _ ( ) ) = { :.=.) $XyX2 ) &.{ ( ( q 0 % % % =  .",
"3.<.s u ' 4.4.2.d Y.G.8.e.r.D.S.8.Z.S.G.S.A.3.F.h.&.;.*.j.M `.M.3 ( :.:.-.-.` ` _ = ~ ( = ) } :.) T.yX+ ^ { ] ) q q 0 0 $ % =  .",
"o.o.@.j.X.%.h.@.n |.x.s Z.S.F.F.6.c.F.v.x.u.k.p.g.@.A.j.u.; ^.J.$ ^ &.;.| { ) { $.$.( ) / ( } =.) $XdX$ X.$.= q $.X.* % $ r = ~ ",
"N.N.u.+.+.o.n n k `.).9 i.v./.L.p.p.z.L.XX(.'.Y m.b k F I L '.J.i 2.O.@.3.1.o.w w 0 w 0 3 3 / * $ V.N.@ t X.0 % 0 0 $ + O @ & * ",
"HXJXFXxXiXuXcXvXxXlXCXCXNXvXZXxX7XZXZXJXJXJXHXHXZXbXhXnXlXZXhX'.bXJXGXAXFXCXxXuX+X`.(.#X2XoX-X5XtX7X'.-XrX2XtX`./.XX/.J n.'..X/.",
"vXvX5X;X7X7XaXpXuX5XtXjXpXpXuX4XiXvXjXMXNXZXcXvXjX<X1X3X4XtX-X+XNXZXNXkXzXfXgXbXxXjX5XuXAXvXbXKXHXFXlXbXNXNXNXhX2XjXhX{.1XhXMXkX",
"A.h.x.P.B.3.A.y.Z.w.8.y.e.y.v.oXF +.j.G.Y.g.v.g.j.x.oXp 3 w O.O.2.4.h.Y.-XR s.u.p.n 4 a n L.@XL n.x x z m j x 5XR x l : : h h j ",
"r.e.h.Y.R.7.r.r.q.q.r.r.q.0.S.OXo.A.D.D.D.y.e.e.Z.A.$Xy q ( ) _ ) { _ T.#Xp n ..w w e w %  X:X- ; ; 2 3 $ + O `.J # O O o + + + ",
">.r.4.v.N.v.D.0.-.q.r.q.q.0.2. X2.Z.;.r.t.r.0.r.0.D.$X' ( _ _ } -.>.-.H.#X4 u / e ' ^ s 3 $XeX; a s 0 ..t 3 O .Xz o o + + 6 2 2 ",
"E.W.%.Y.K.x.A.;.;.0.q.-.-.;.j.B.4.e.r.W.W.E.q.-.D.D.&X' _ :.=.` >.:.} H.OX4 e / X.' ^ ^ *  X#Xi o.^ e ' / O.3 /.b.o O + g 6 g 6 ",
"E.r.[ Y.B.@.:.>.;.0.0.-.>.;.j.XX2.D.E.Q.Q.Q.E.E.E.t.wX] ) ` ) { ` -.` w.T.w X.] O.%.] X.^ S.wXn %./ t / @.j.6 @XM.o > @ & g g 6 ",
"q.e.o.l.P.j.A.&.%.%.[ [ ( q j /.n 7.8.e.0.t.0.y.w.7.OX<./ ( / e %.] %.F.K.9 y u 4 3 w v y v Y.i a 0 0 0 v v + (.M.  o # @ @ # O ",
"3.4 p Y +XL.Y.Y.I.L.I.U.p.n.].].;X+X@X|.z.I.>XOXoX(.<X8X2X/.oX-X:X@X5XuX7X2X-X`.'.'.+XM.I `.<XJ.`./.XXXXI.`.).+X}._.}.{.^.^.^.^.",
"AXAXrX`.uXMXMXAXJXJXKXSXvXbXFXnXKXJXKXxX0XiXZXKXJXJXDXFXJXGXKXZXFXFXZXZXuXPXJXNXFXFXZXNXkXAXHXSXZXNXBXBXMXMXMXuX4XhX1X8XhX1XxXkX",
"sXpX:X|.OX:XOXwX#XwXwX#XXXY. XXX#X:X2X(.).^.^.2XtXtX@X).(.|.XX X X.X|.@XP.XX|.L.n.2X(.P.K.K.U.U.N.l.3.O.3.2.o.o.n 4 a 7 b oXi i ",
"z.z.l.x.B.6.3.6.g.4.2.o.' e [ ' ' 2.l.L.'.`.F u.i.i.F 9 4 4 3 3 2 y +.v.S.O.2.2.a :X.Xn g.g.7.R.v.3.O.' o.o.O.2.o.0 t w n OX4 w ",
"K.|.Y.P.K.Y.B.v.c.c.v.2.' ] ] ( %.8.7.g.(.n.@.h.*.X...+.+.n j 5 7 n O.&.Z.e.5.7.O. Xl.F 3.6.R.Y.S.h.h.4.i.1.p.p.a.u / t a.eX4 y ",
"P.K.XXoX|.K.F.a.3.c.v.2.O.X.] $.Z.8.5.3.(.k...*.h.O.X.v n j j V c d ' | :.r.8.8.%.Y.XXF F.h.R.R.c.g.c.2.u.d.s.F n o.* ..1.eXF 4 ",
"|.K.K.P.N.K.Y.Y.c.c.B.v.2...X.X.%.h.h.B.L.J.M i.g.x.u.i.i j K K u.o.' &.w.H.Z.7.] Y.:XF v.h.v.R.v.3.j.@.M K m m k 2 0 r v :Xl.p ",
"Y. XY.B./.N.Y.B.B.d.p.l.F n +.+.@.2.a.m.^.L P b m.N.I J , l I V s.u.n o.O.4.c.<.w x.oX: n 1.p.F k 4 o.a 7 7 h h h k.K 8 a XXz.> ",
"j.x. XB.m.F p.l.s.m.K z x h h m m F J.J.J.R ;X{.;X{.^.H R T R !.R ^.^.^.).+X`.J.'.{.[.'.`.L.J.J.I.oX6X-X;X;X@X@X{.1XxXZXiX6X6X7X",
".X|.#X/.z.2X2XoX@X5X2X1X{.'.^.<X@X5XZXZXqXbXJXPXJXFXlXfXmXlXZXJXnXFXHXHXKXPXFXFXJXcX2XkXpXpXbXbXpXpXMXuX7X4X<X@X].W <X<X5X:X:X+X",
"JXJXJX<X^.gXFXgXxXxXxXlX8X1X[.xXtX@XiXuXrXrXrXrX<X<X1X_.R J.{.{.-X;X+X`.4X'.P. Xl.B.c.h.4.3.5X`.<.O.' a j > > > U ^.- ; a @...s ",
"(.J.T J.H T R H H R E Z Q < < 9X!.J D k.L.|.I.z.K M.lXR R L.Y D P m.z.L.tXJ j.c.S.S.A.Z.e.7.rXp.' *.] w 8 2 5 O H R ; c t X.*.$.",
"2 2 9 D (.D A J U A U H < < B [.I b.l.N.P.OXXXN.d.`.hXH b.K.N.1.L.U.I.I.uXk.1.c.R.S.Z.e.Z.7.XXK.' %.e u 6 6 g O z M.; v u @.$.( ",
"w u 8 M XXs.F s.I K U l - H H M.V K a.K.Y.Y. Xx.u..X1XS m.x.x.l.N.N.z.L.tXV.3.S.S.7.D.e.w.7.>XL.e X.s a y 8 5 + x /.2 v 2.O.X.*.",
"O.u 3 i /.m D K K s.B l < l < +Xb.M a.v.B.oXP.N.u./.1Xx u.c.B.x.p.l.a.a.:Xx.h.H.y.w.e.e.Z.6.>XoXs %.n 7 7 f ; + U <X7 i c +.X./ ",
"@...y u.#XK l.s.C.C.J J l < - ^.K K a.B.P.(.@XI.n.M.].l l.a.l.F k.m.N.p.oXu.@.h.6.7.8.O.8.<.U.6Xa n b A h - O o 1 {.: : p b v i.",
"X.@.a d.#Xm K K s.b.h : > - o R L A D P n.J.J.L S T _.- A P A A H S S Y {.^./.I.(.I.XXXXoX:X'.6XiX2X7XiX3X_.{.[.,X4X2XtX0X4XgXvX",
"3 y i I L.J b.Y M.J H E < H W *X_.R -X+X;X4X;X6X'.1X1X3X5X5XiXiXhXhXiXkXbXHXJXJXKXAXAXGXMXpX5XtXiX5XvX4X,X_.].1X3X[.@X4X8X1X<X4X",
"@X'.'.'._.8XCXCXCXnXnXlXlXnXCXDXFXFXFXJXKXKXKXGXZXkXhXhX7XvXNXbX<X4XtXkXrXrXrXrX:X:XOXyXT.6.c.x.x.d.V.j ^.T 1 1 > O O : o O : + ",
"MXcXCXqX1XCXZXcXbXxXhX1X*X{.+X<X<X-X(.N..X/.oXN.N.I J I P P P m.5XY d 3.G n <.3.h.2.o.4.%.^ ] ' t g r @ '.H # # @ 5 f O O + g r ",
" XB.XXz.z.l.u.u.u.p.n.-X9 8 2 3 0 0 t q q X.i.t 0 0 3 y y % * w tXp.] { %.7.8.A.e.w.&.| | { ( ] ] ' % @ ).x # + & g O # - ; u *.",
"X.' n d o.4.@.X.#.n m.-Xy w u / ( ) _ _ ( ( X.t q / / 0 q / ) X.XXp.| } | w.&.;.;.-.-.&.} ` ( ( ^ / u + M.l # 5 & & o o - 2 X.$.",
"%.O.O.2.8.5.A.5...a I.rX3 t ( ) ( _ ( / / / t * t /  .= ) X.) ..#Xk.' w.y.8.;.;.;.} } } ` } } _ _ )  .% !.B . f f o   o > 5 u / ",
"%.8.8.8.%.&.w.%.4.a L.rX0 / q ( ) &.%...t u 0 0 w 0 t t ( X./ v rXm.s 7.A.%.A.:.w.&.&.%.$.*.X.= / u r @ E B . o     . . o 7 + 2 ",
"%.%.5.5.w.5.5.X.o.n N.XXu  . .( ( { ] X.....r g y 3 8 a u u v N %XN.+.w ..4.X.X.' s d a 8 u.C.d.l. X).U R < X E ! ].].,X3X1X;XiX",
"O.O.%.%.O.4.o.n n k J.oX2 v v y s s y 8 8 j 5 ; ; : 9 ; ; j s.s.rXuX|.oXOX#XyXdXyXsXBXBXBXNXGXGXNXGXZXjX1XU R 0XhX0X8XlXkX5X7XqX",
"n v s d n G P L.n.S T *X, x l A D k.(.).^.}.[._.[.4X4X<X6XvXFXHXgXbXZXSXBXMXMXBXBXBXsXyXwX#XXX X:XXXB.d.c 2 5 V j K @Xs.N c F b ",
"P l.P.oXeX-XiXxXxXhX4XgXtXMXbXZX-X6XkXbXxXhXiX1X[.4X<X).+X5X6X2XI.I.U.U.v.Y.aXU.6.8.[ [ e 0 w d Y.G 3 y 3 3 % % 6 2 eXn u @.v <.",
"hX5XNXMXNXgXxXcXxXjXtX2XeXeXXX@XJ.).l.x.x.M b i j ; : b p.6.w.e.0.y.9.9.w.8.aXb ] ;.{ &.| ) ^ e oXG 4 a r % 0 % r 3 #XM c +.+.v ",
"'.U /.N.Y 5XR A L D b i 3 v v i Y L.n @.O...w y 3 6 6 c c.5.r.E.r.r.t.r.0.A.MXl.{ >.:.-.-.} { ' OXb 2 4 0 0 * * 3 3 #XD b u.M +.",
"- > 2 2 b XXI.D k p k M v #.#.n m.@X2.h.[ e w w t t w #.T.8.r.r.r.e.t.t.w.4.BXm.( ` >.-.-.-.` ] #Xs.3 u r r = r g 6 :XP j K V V ",
": m g ..u.OXx.1.b i b 1.i.#.s <.z.P.h.7.] [ w ' / / y 3.&XO.r.E.r.r.e.D.&.e kXk./ :.;.;.-.} &.e #XN.+ 3 + 2 6 $ 6 ; J.S > j h h ",
"j 8 g @.v &Xi.u.M M F n +.2.2.3.k.oXO.*.| ) ^ q ..u + a #X3.y.D.D.e.-.e.&.O.pXz.u ' e [ [ ' <.b (.`.L D , A b.M.@X;X1X*X*X[.[.1X",
"j N #.#.M #Xp.u.p.K u.c i n 1.n k.#X+.%.$.] ' ..+.6 O : k.D a.' %.%.7.8.4.x.2X).l.Y.wXdXpXMXNXGXGXGXZXpXvXMXjX5X7XvXZXHXNX4X1X,X",
"m K V m J -XD D m h h 7 , > , , S J.b p.v 3 i i : , H R _.1XjXkXiXjXNXvXvXxXCXHXJXIXPXJXKXPXUXGXkXpXaX:X:XOXF.@.i.x.x.B.a.j `._.",
", : : : < W n.J.).^.'.{.3X1X;X7X{.).;XtX2X2X2X2X@X9X1X1X8XgXnXKXKXFXvXcXZXvX5XjXaXrXpXaXuX-X2X.Xd.B.3.d w ' X.$.' X.O.' X.3 .X}.",
"_.{.1X4X1X;XiXxX0X0X3X1X3X4XiXvXiXtXZXJXHXZXxX1XVXtX).`.J.L /.~.V.v 3 s @.2.8.8.[ [ e &XyXK. XF.A.Z.Z.$.{ $.&.] [ ' ' ] X.t ~.^.",
"FXnXFXLX0X6X4X;X1X*X*X_.J.T (.oXP.m.(.oXJ.n.H !.V m 8 7 ; ; 8 3 0 / / * = { } } &.;.` &XwX<.Y.&XZ.e.} { &.( | ^ ^ e e X.* % C.M.",
"hX9X<X<Xn.n.z.K J z J k.A p ..] X.%.5.5.X.O.a OXM 3 s s 4 w t t 0 0 t q ] _ { -.` ;.` T.dX<.2.T.S.w.%.] ] $.( / * * * r v 5 E R ",
"z 7 h , A P F c M K K /.m.4 X.;.} w.e.e.H.w.4.wXj.w / ^ q * ) ) t * 0 * ^ ( -.:.;.;.;.T.sX3.o.O.7.7.6.o.s ..X...r 6 g 5 5 o E ! ",
"7 N m ; h k b M p.l.K (.5Xi  .` ;.-.-.r.r.8.<.yXg.w { ` ( ( _ )  ./ / ^ ( | :.>.>.>.) T.sXB.c.s 2.3.d F i i 5 5 5 7 l B 1 1 ! ].",
"f j 8 7 j P M 8 M l.P oXuXi X.:.;.;.;.e.w.7.G yXx.0 _ ) ( _ ) t 0 y n +.s e ( _ } { ( c.MX|.#XXX X|.oX@X5XuX@X`.%X1X9X8X8X9X3X3X",
"N N c c N u.f.c d.d.j (.tXF #.:.*.A.w.Z.A.g.b :XB.w / t ..1.u.F R 1XhXgX7X-XoXoXrXeX2XjXhXzXnXKXZXxXZX4XbXxX[.R [.[.[.1X).I z z ",
"z m m j M M f.m K m z `.iXP i.@.j.B.g.B. Xp.k +XoXV.a.x./.2XuX4XZXKXHXFXFXZXgXjXAXAXuXiX0X3X1X8X1X4XJ.J L Y A < < - < '.O ; 5 2 ",
"l U U z m 7 > h U U l T *XT n.`.`.<X5X7XvX7XnX0XhXJXNX-X<X5X5X@XiXjXgX7X2X@X-X2X|.Y.F.c.l.s.s.I E 4Xb.u.v y M a 7 : j .X$ 6 6 y ",
"Z T H U ^.^.+XiXlX0X4X{.0XmXmX8X3XDXPXPXJXFXnX1X8X4X1X{.*XJ.b.m k D K J m > D +Xi 2.c.S.j.j.d.d.R 4Xd...X.%./ u 3 3 c .X% g r r ",
"CXCXCXCXFXbXCXKXKXCXbX+X<X8X9X].,X0XlX9X).b././.M.J R _.;XS K 8 c 8 c N V : H 4Xk 1.a.g.d.x.d.I T 2X@.*.*._ $.^ 0 3 y .X6 N 8 5 ",
"uXuXxXcX7X-XhX4X{.`.).Y J l R }._._.H M.M./.V.m.N.L.n.J.7Xl j v y 8 8 N f.j < ;Xk 1.a.c.x.x.p.P n.:Xj.$.&.;.&.' u 3 7 C.+ f f j ",
"v.o.l.p.n V.2XI d.a.i.j.M c f.s.M.5XJ I C./.I.N.l.m.b.J.tX, 7 y a i 7 7 f j l 2Xk n O.h.h.g.i.l.s.:Xj.$.5.O.w a ; ; - l o 1 H U ",
"A.A.c.c.j.F.rXs. Xc.@.i.c +.,.g M eXI I M.k.L.L.l.z.L.).2Xx j 4 2 i j m j 7 < [.F n 2.c.x.1.F F U 2Xd.x.1.p.k.J I R !.}.{.9XhXiX",
"Z.w.S.c.x.P.:Xk F.S.j.x.c b +.N c XXj b.M.b.I z.l.B.b.U 1XU 7 8 2 7 x x f 1 < }.z j s.L.L.L.+X<XhX3X4XZXlX4X<X*X9X%X{.}.^.^./.b.",
"e.y.S.6.G U.aXG B.G.o.1.b i M +.1.XXK D s.s.Y m.p.l.V.M.{.U f f j N U H E E }.8X9X2XuXcXFXFXKXLXLXfXhXDXzX=X*XR H C - - o o ; 7 "
};
