/* XPM */
static char *f2b31effee5542a1e40febc07456064ey3I1JssfKdBms8zZ[] = {
/* columns rows colors chars-per-pixel */
"64 64 254 2 ",
"   c #180D02",
".  c #1A1306",
"X  c #0B0200",
"o  c #21170A",
"O  c #241A0C",
"+  c #261705",
"@  c #271B12",
"#  c #230D00",
"$  c #34220D",
"%  c #2D2314",
"&  c #2C241A",
"*  c #272419",
"=  c #332414",
"-  c #332A1C",
";  c #3B2C1B",
":  c #372717",
">  c #3D311B",
",  c #2F2B20",
"<  c #352C22",
"1  c #3A2D22",
"2  c #3A2E29",
"3  c #3A3125",
"4  c #3D352A",
"5  c #3B362A",
"6  c #3E3931",
"7  c #49331C",
"8  c #433524",
"9  c #453A2C",
"0  c #4C3C2C",
"q  c #483826",
"w  c #553C26",
"e  c #443D33",
"r  c #493E32",
"t  c #453E39",
"y  c #4A3729",
"u  c #663E24",
"i  c #4C412E",
"p  c #56432D",
"a  c #4C4234",
"s  c #4C443A",
"d  c #48453B",
"f  c #514433",
"g  c #544A3C",
"h  c #5A4C3C",
"j  c #564837",
"k  c #5E513E",
"l  c #67462A",
"z  c #654B38",
"x  c #64533C",
"c  c #69543D",
"v  c #735538",
"b  c #4C4A43",
"n  c #544C43",
"m  c #5A4D43",
"M  c #544F4A",
"N  c #5C5244",
"B  c #56524B",
"V  c #5C554B",
"C  c #595549",
"Z  c #5C5B53",
"A  c #5C5A57",
"S  c #4E5352",
"D  c #634D42",
"F  c #635444",
"G  c #6B5B46",
"H  c #64564C",
"J  c #645A4C",
"K  c #6B5C4B",
"L  c #685745",
"P  c #725D4B",
"I  c #755A45",
"U  c #645D53",
"Y  c #6D5E52",
"T  c #645E59",
"R  c #715F51",
"E  c #6B614E",
"W  c #73614C",
"Q  c #7B634C",
"!  c #786246",
"~  c #6C6254",
"^  c #6C645B",
"/  c #68655B",
"(  c #736454",
")  c #7C6A54",
"_  c #72665A",
"`  c #746A5B",
"'  c #7B6C5C",
"]  c #786756",
"[  c #7D715E",
"{  c #5B5F62",
"}  c #5C6466",
"|  c #6C6A64",
" . c #666767",
".. c #746C63",
"X. c #7A6D63",
"o. c #726D6A",
"O. c #767164",
"+. c #7D7264",
"@. c #74716B",
"#. c #7C746B",
"$. c #7D796E",
"%. c #757473",
"&. c #7D7A73",
"*. c #7E7C7B",
"=. c #787775",
"-. c #6E6F74",
";. c #80623E",
":. c #816D5A",
">. c #836C56",
",. c #83725D",
"<. c #8A745C",
"1. c #8A7559",
"2. c #967A5B",
"3. c #846749",
"4. c #837463",
"5. c #857966",
"6. c #8C7A64",
"7. c #83766B",
"8. c #847B6D",
"9. c #8C7C6C",
"0. c #897665",
"q. c #927D64",
"w. c #917E6B",
"e. c #987E65",
"r. c #847C73",
"t. c #8A7E72",
"y. c #847E79",
"u. c #847B75",
"i. c #8A776A",
"p. c #7F8078",
"a. c #8D816D",
"s. c #94826C",
"d. c #99856C",
"f. c #9A8567",
"g. c #8C8375",
"h. c #84817C",
"j. c #8C857B",
"k. c #8D897D",
"l. c #868174",
"z. c #938573",
"x. c #948A75",
"c. c #9B8B75",
"v. c #93857B",
"b. c #948B7C",
"n. c #9B8D7C",
"m. c #9A8675",
"M. c #9C917D",
"N. c #9E9176",
"B. c #A28D75",
"V. c #A28D78",
"C. c #A3927B",
"Z. c #A99679",
"A. c #B59878",
"S. c #AA8B68",
"D. c #B7A17C",
"F. c #C79F7B",
"G. c #767E80",
"H. c #7C8282",
"J. c #858483",
"K. c #898683",
"L. c #8C8A84",
"P. c #8C8C8A",
"I. c #888787",
"U. c #948C83",
"Y. c #9A8D83",
"T. c #918E89",
"R. c #959184",
"E. c #9C9284",
"W. c #95938C",
"Q. c #9C948B",
"!. c #9D998C",
"~. c #9F9886",
"^. c #959492",
"/. c #9B9692",
"(. c #9D9A93",
"). c #9D9D9B",
"_. c #8F908C",
"`. c #A68F82",
"'. c #A39483",
"]. c #A49A85",
"[. c #AB9B84",
"{. c #A2958B",
"}. c #A49B8C",
"|. c #AB9C8C",
" X c #AA9584",
".X c #B39D88",
"XX c #A49C93",
"oX c #AA9E93",
"OX c #A39D99",
"+X c #A89D97",
"@X c #ADA28D",
"#X c #A9A289",
"$X c #B3A38D",
"%X c #B7A689",
"&X c #A5A195",
"*X c #ACA394",
"=X c #A5A39C",
"-X c #ACA49B",
";X c #ADA99D",
":X c #AEA892",
">X c #B3A593",
",X c #B5AA94",
"<X c #BAAC94",
"1X c #B1A69B",
"2X c #B4AA9C",
"3X c #BAAD9C",
"4X c #B8A696",
"5X c #BCB19C",
"6X c #BBB198",
"7X c #A4A4A2",
"8X c #ABA6A2",
"9X c #ACABA4",
"0X c #ADADAA",
"qX c #A6AAA3",
"wX c #B2ACA3",
"eX c #B6ACA6",
"rX c #AEB0A8",
"tX c #B6B1A6",
"yX c #BCB3A2",
"uX c #B5B3AC",
"iX c #BBB4AB",
"pX c #BDB9AD",
"aX c #BBB9AA",
"sX c #B4B5B1",
"dX c #BAB6B3",
"fX c #BDBBB4",
"gX c #BBBBB8",
"hX c #ADB1B0",
"jX c #9FA09B",
"kX c #C2B39C",
"lX c #C6B799",
"zX c #C1A794",
"xX c #C2B5A4",
"cX c #C4B9A5",
"vX c #C4BAAC",
"bX c #C9BAA7",
"nX c #C3BDB4",
"mX c #C5BEB7",
"MX c #D1BAAA",
"NX c #BEC0B7",
"BX c #CCC2B5",
"VX c #C4C2BA",
"CX c #CAC4BC",
"ZX c #C6C5B8",
"AX c #D4C8B9",
"SX c #CEC2AC",
"DX c #CDCCC2",
"FX c #CBC7C4",
"GX c #D3CDC5",
"HX c #D7D4C9",
"JX c #DCD8D2",
"KX c #E3D7CA",
"LX c #E3E3D9",
"PX c #ECECE0",
/* pixels */
"2.S.2.! 1.,.W P ] ' ' K 8.8.U.!.R.R./.=Xy.m 5.<.! 3.v I I w.:.5.m.9.' m X.m @ & o 3 U 1 m s 2 3 @   U.XXX.r O   9 j 4.v.s < t 2 ",
"S.Z.2.w W W ] F L F ( m g s &XXX}.!.(.8Xh.U 9.>.v l l z P V.' ' v.4.h j Y t.F ` j.U.1Xr   O 3 < 2 o.8X1XQ.v.J X.>XY.t.7.X.X.X.7.",
"p c c ; G F a N J J N m e g &X2X2X2XpX(.....9.) c ! I z ] 9.~ j.Y.h F K +.cXBX4X5X*X2X&X8.E.iXVXVXFXVXmXnXvX7.2Xn.( F H ` H m X.",
"0 F G i k a O     @   O o _ x.~ ' g.r.^ t n ` L ] ) z 0 h #.Z n < o f g L a.z.n.E.n.:XO.^ 9XVX=XgX0XgXuXnXXXE.2X4.' Y H X.H F 4.",
"f @X].n.3XM.E.+.] h h j 7 4.s.8 8 a 4 & d r...h 0 # o 3 ..T.b . . i N ' 9.= : = 9 g e 5 / VXuX=XsXgXsXgXOX!.u.E.' 9.L F w.' ( ( ",
"= m.n.|.].n.yX].P s.6.6.<.<.s.d.6.x.X.U.wXOXQ.XXg._ }.CXmXdXDXW.l.g.:XyXGXE.{.E.oXwXU.j.OXfXuXqX0X7XsX8X(.(.O.b.X.7.( i.oXm.z.Y ",
"= c.[.$X$XxX5Xs.+ ) ,.<.>.>.q.s.W ' H r.=XT.k.-X#.#.GXuXuXVXgX9Xr.8.1XyXnX1Xr.&XZXiXnXpX$.mX=X/.9X0XjXJ.^ #.^ E.8.4.4.9.t.9.z.F ",
"y w.z.' 9.}.cX5.$ 0.) c ,.q.,.,.[ 5.g ^ XX/.&X-XZ r.CX8XdXdX9XuX` ^ vXBXHXoXV XXZXnXVX9X/ VX/.9XmX;Xh.^ ..l.N 1X'.9.4.] ' ] ] Y ",
"0.' 8 8 0 3 - X 9 a.O # O i 8 + + 9   n Z ^ 8.~ s g.XXCXnX!.O.b.h D K m ~ J V ` $.k.U.V V ..T ^ n 6 3 & _ g N <X[.4.5.] X.' ` z.",
"`.|.'.].g.g.~ h ` ( h F h f 9 h 4.N s #.n 3 g g 9 _ r 9 1 - 8 9 # 9.] 8 - o / / - , * - v.v.m K N ' b.'.n.|.'.>X>X9.] ' +.( J g.",
"`.V.MXw.h }.x.a.8.K 4X2X|.E.8.g.2XyX2XnXXXU.g.:X2XyXoX8.( L '.V.f.%X<X[.'.}.;X=X9X=XXX}.'.'.Z.C.C.'.'.5.] 9.c.>X3X9.] ' 4.' ~ t.",
".XzXZ.Q 0 '.' ' 4.F n.9.'.'.' 9.}.XXvXmX^ +.E.:XSXAX3XBX|.n. XlXlXD.A.$Xz.&Xj.h.*.h.O.n.a.s.S.f.G s.9.W ) ] c.$X$Xi.i.] +.7.8.g.",
"I >.>.I $ V.C.c.,.x 9.) c.9.:.9.}.&XCXoX9 8.<X$XkXSXcX|.'.n.kXZ.Z.%XlXbXE.U.@.%.K.| 8.'.C.Z.A.Z.c ( 9.' ' ,.9.|.m.4.] L ` X.+.4.",
"l 3.q.c q C.,.0.,.G ,.L w.' ' 9.~.}.-XX.= '.,X$XkXkX3XcX>X,.s.kX%Xd.] x.h r.| y.&.$.$.,X,X<XlX%Xc.4.a.] ( G K '.4.m.0.' i.9.g.z.",
"D m.w.] K n.G 9.z.E 9.] 4.5.] ( 8.b.#.9 8 kXkXkXcXcX5XxX|.z.K i 9 % o . . ~ 8.J U 4 J _ f F f j g +.' f 0 : ] n.( F r 0 F L f = ",
"y D K 8 h 5.f f i h 9.F a ~ g U b.U 4 - n.bXkXkXkXSXbXyXcXb.].` U V ..^ g n.+.` +.J g.9.g r e 9 s j.XXV a g 8.oX( 1 h J ` 4.~ N ",
"a 3 a h +.9.F G x z.h 9 ' N . @.L.Z n U.3X$XkXkXcXbXbXxXxX+.}.:XvXCX-XiXHXyX3XkX@X5X5X6X:XiXnX&X^.=X7X=X/.=X/.W.OXk.wX!.Q.g.Y.E.",
"N 8.'.c.5.z.c.d.d.[.n.' 2XE.~ W./ b &.Q.n.xX<XkX.X<XMX5X|._ E.}.XXfXO.-XcX].[.$XC.$X#X[ }.ZXwXP.=.I.qX^.I.).I.9XdX| /.U.j.#.+.+.",
"O L c.) 0.w.q.f.q.d.x ] >XE +.j.B ..Q.8.+.3X3X<XkXcXbXkXyXg.R.$.U / ..b.}.>X].,XZ.$X,XF !.wXK.7XOX^.I._.).).h.W.uXT (.Q.E.+.4.b.",
": j 6.) 0.,.e.3.>.d.: G C.( 4.Q.V O.2X&X~ 2X5X5X$XkXbX<XxX~.Q.@.B #.j.Q.}.@XSX,X[.6X,XN *XL.h./.0X0X^.T.).L.J.T.=X| !.!.Q.X._ 9.",
"h F ' ) G >.q.1.1.<.8 K z.8.- g ~ j.-Xl.g }.cX,X>XkXcX<XAX}.X.$.U U 6 }.*X2X@X,XN.x.a.i &X(.uXuXOXT.T./ T./.R.y.T...U.XXQ.U._ +.",
"% F 4.G ] w.W >.,.c.0 +.` 9 < 9 o s e - 8.x.].cX$X>X[.@Xb._ N V U N e r.Q.&X2X*XE.M.f J !.^ | P.r...U T T @.b B t 6 y.t.r.7.J X.",
"o J N o o O % % - 3 4 b.` & B (.^ N J 8.}.:X5.f j x ( j . a +.J 9 F E #.- & V !.!.V 6 k.Q.r.n 6 < 4 4 t n , < t t t $.s s 9 g 8.",
"e k.}.l.r.r.U s d U &.W.h.@.%.@.!.&X2XBX6XC.,Xx.[.#X].i ` cX|.>X@X].n.*XY.u.OXHXJXfXDXCXZXCXpXl...!.u.$.j.&.y.y.L.W.=XU.Q.#...}.",
"t (.XX-X9XuX8X/ Z W.^.P.@.@. .A B -X;XcX,XZ.<X6X6X:X}.E E.>X[. X[.<X].*XQ.Q.GXJXLXJXDXDXLXHXCX=X-XvXQ.tXnX9XXXwX9X9XwXeXiXvXiXpX",
"n &XXXk./.^.W.Z d p.L.|  .Z | M d ..J 5.$X[.N.6X,Xx.~.` E.kX[.$X>X$X4XE.r.X.HXJXGXVXfXtXJXuXDXL.k.AX$.k.nXR.W.(.OX;XwXtXvXiXtXpX",
"g U.!.&XXX/.y.d b o.o./ Z / Z . * e - % = > h 6.a.z.z.F 6.s.q.>.,.F 8 8 . #.GXDXDXDXHXHXDXDXDXL.k.AXO.}.-X;X;X&X&X9XtXpXpXaXwXiX",
"H N > a n T d , / ..B M b e 5 d / R.N a 0 i L q > W W W q.q q c j p ; = g g.wXDXJXHXHXDXVXDXHXdX#.BX` k.wXwX;XtXuXfXfXpXpXwX&X2X",
"8.b.].+.T s s U l.&.K.| ` d $.uXpXpXaXtXXXE.'.'.%X.XA..XB.%XZ.s.c.,X|.'.'.b.R.nXZXZXDXDXHXuXFXDX8.BXg O.ZX9XuXuXwXtXpXpXiXwXXX=X",
"E.}.M.M.^ -XL.L.R.&.@.&.O.&XpXaX2XyXtXfXfXfXiX'.B.S.A.S.3.Z.[.c.s.d.s.m.+.r.;XwXVXuXNXDXCXfXDXGXU.vXe x.=XwXtXtXiXpXfXpXtXtXeXtX",
"'.}.2X8.V U.K.K.L.y. .T / j.tXiXyX*X;XNXhXsXnXn.e.A.F.A.;.1.$X].V.c.6.n.` r.!.(.R.W.DXfX/.9XCXCXU.g.- V X.Q.!.;XwX=X&XXXXXwXiXiX",
"9.5.` 3 B L.%.L._.P.| | / l.uX;X5XM.$.(.gXgXtXn.e.S.S.S.v Q C.'.B.f.C.c.~ T.(.L.L.uXDXHXtXVXDXVXr.g.+.g.N s 3 4 3 & & < d ^ O.X.",
": % O 8 O.y.@.K.W.W.p.&.&.R.tXZXaXyXAXCXwXVXAX4.1.A.2.f.! <.4X]..X[.V.] < K./.8XuXpXCXJXPXLXLXnX8.3XM.n.}.m.4.7.^ X._ J V < < - ",
"z.z.'.}.U.L.&.*.L._.P.@.| R.U.U J ` g.g.N J N h F y j Q W z.n.5.s.c.4.F N k.-XnX| h.n V $.&.o.U h h ( ( L f 8 }.*X3XoX|.2X1X2X2X",
"MXM.g.g.X.W.K.*.*.P.I.| | @.$.d - i f 3 * @ . - ' H L H h }.r.g E F q h ' '.] f 4 n V J s b 6 & g ( N 9 8 O a >X3X*X@XyX4X5XyXxX",
"kX].n.8.T j.y.I.I.P.=.@.&.$.T.XX}.cXyX:Xg.R.Q.XX-X2XXXXX-XW.XX-X}.[ P Q <.f.<.>.9.~.T.XX(.XXeXQ.v.oXyXvX2X5.'.3X3X3XkXcX,XkX5X@X",
"4X|.'.X.U h.J.I.P.I.J.L.h.R.$.-XyX3XcXxX8.b.-XT.K.!.T.7XL.=.K.U L.^ 0 w l w u <.L 9.Y.v.T.E.Q.{.[.] n.bX5.' 3X4X>X5X6X,XkXlX<X<X",
"|.c.m._ ^ h.L.I.P.J.I.*.o.&.7.2XxX<XSX*X( 8.-XW.=X7X7XP.^.I.K.A W.#.0 w 7 l u u L n.Y.Q.Q.XXoX'.n.z.] |.' ,.'.4X@X,X<X<XkX,X,XkX",
".Xc.9.Y _ y.h.*.P.J.K.h.y.^ $.2X2XxXxX@XH b.tXW.=.}  .G.^.7XL.@.%.r.R p v l u l W n.t.X.$.j.X.4.,.G F [.[ ' ] }.n.>XxX3X>X>XkX>X",
":.V.'.` ..j.j.h.h.@.| y.j.r.~ 1X+.M.yXyXh O.pXK.S S S  .H.W.K.$.$.3 8 P Q v u w :.n.8.r.j.b.' K z.[ K >Xx.L f M.n.yXxXyXxXxXcX<X",
"7 p 8 a }.^ s B ^ n d s < - 4 J   5 s V @ r.uX*.S } } { %./.j.N k.` ` : + $ + # _ ~.a e a g U '.[ L F 9 - . r 8.+.8.8.U m ; 8 Y ",
"z ] j 5.b.5.~ ^ n e - * 4 9 ` O.s | d , d (.K. . .}  . .*.K.^ 4 g.b.9.H M.( F H R.tXx.s % - s r 9 a O.J & n Y.a 3 a o @ o 1 1 9 ",
"'.C.z.k ] |.M.M.x.E.n.n.}.g.}.j.W./.L.K./.).*.{  .-.-.%.*. .^ m g.4.H J &XQ.tX-XR.*X:XcXE.j.wXXX8XXXeXiXwXtXtXwX;X-X}.U.v.|.t.8.",
",.K x G a.4.4.5.9.z.+.' b.E.}.Q.&.K.| o.*.o.I.%. . .*.J.T t ..#.M.4.H N T.=XVXnX=XaXcXyXg...&X=XeX8XOX=XuXfXdX8X&X;XE.#.2X}.` F ",
"K W ,.] ] ,.,.' ,.z._ _ *X:X!.l.h. .| h.h.A M @.| %.$.d s / X.8.M.( E n &.=XDXnXaXyXBX*X8.` T.8X9XuX7X7XsXgXsX9XuX=X!.U.XXXX8.~ ",
"( N ( 9.C.' K G 9.'.h K E.j.` ` n t o.&.@.d d d 3 4 9 < m O.u.b.b.].h n Z &.GXZXvXSXAX2Xb.k.fXuXuX0X9X=XqX0X).0X9X^.W./.&.^ e 3 ",
"o = q K ,.c y q x x 0 ' % . o * % 4 < * 5 * O.^ N ' G h E +.R.;X8.8 = g.l.b.{.>X,XvXAXxXQ.@.GX9X=X9X=XqXuXqX0XhXsX9X=XdX@.b (.OX",
"n.] ( W ,.s.d.q.<.>.4.>Xg.$.&.L.yXyXpX!.p.k.!.2X,X].Z.Z.M.#X,X#X].a.a.1X:X2X*X'.>XyXyXyXr.| VX9XfX=X9XrX9XsXNX0XsXdX8X0X=.B fXFX",
"bXd.) [.6.6.>.f.f.>.s.z.n.-X!.uXwXCXCXCXDXZXZXGXz.9.s.,.) <.6.N.M.[ a.2XcXyX5XyXyX3X;XE.l.@.VXtXpXuXuX=X8X0XuXgXfXVX9XuXh.B fXmX",
"zX,.x B.) <.q.1.f.1.f.6.N XXVXdXdXVXmXVXVXVXGXpX~ t.c.w.<.e.c.6.M.~ 5.:X*X@XyXyXyX}.&X-XXXO.tXfXpXfXwXh.T.9X=X/.wXtXiXiX..Z pXy.",
"xXs.j P >.q.6.q.1.q.B.9.g E.;XOXeXwX9X9X=XuXpXiXr.t.9.s.m.B.C.c.b.+.5.x.}.oXwX-XY.Q.Q.wXn s Z ..V V d 6 U n s < 4 3 3 s * ..u.r ",
"MXG G m.,.0.,.6.q.B.C.z.' X.&XOX/.XXOX9XpXfXiX2X8.t.z.`..X$Xc.9.{.X.b.E.}.*XtXr.H J j.u.t T OXn d g d u.#.e & < < - 3 = ; b.E.8.",
"F % ' 4X5X[.c.6.w.c.c.z.~ X.XX-Xy.7.Q.y.u.v.Q.Y.r K ] :.' 0.6.9.7.e }.{.{.1X-XyXu.X.eXl.V ..XX+X{.}.XXU.E.XXoX|.*Xm.n.>Xn.c.].|.",
"j J 8.' ` a ; $ : = = : : ~ r & @ @ < 4 1 3 % O = L ; ; L P G ' ` l.&X7.Y.E.*XvX2XiXQ.X.X...U.l.t.g.g.g.t.Y.|.cX>X'.c.C.0.9.6.] ",
":Xn.n.}.+.+.' F K ' 4.+.E.E.j._ ( z.8.*Xb.' 6.,.4.[.V.[.C.V.'.9.|.8.x.t.E.n.*XxX2XcX2X2XO.7.*Xj.n.E.Y.E.}.t.v.>X|.'.$XB.C..XZ.s.",
"-Xg.XXn.{.b.1XxX>X3X2XBXcX|.}.2X@Xx.>XC.,.) s.s.c.w.,.c.:.K ] ] M.s 8.x.g.n.3X3X5XxXcX2X~ 5.}.x.~.-X}.{.v.7.X.3X>X$X X$Xc.Z.B.q.",
"wXtX}.XXXX8.1X2X*X1X1X2X*XE.n.E.1Xh [.C.:.0.<.q.B.Z.) s.0.s.9.z.E.9 _ +.}.1XvXBXyXyX}.g.r 8.l.r.}.XXQ.{.j.1XX.*X9.[.[..X,X,X$Xc.",
"tXeX&X~.n.m 3X1X1X2XyXoXoX|.Y.1X5Xf ].,.P I c d.C.C.' a.K h F g m a E.h m ( ( ~ a 9 & % & U.s & r 5 e 3 ^ U m b.N f L ] F 9.c.C.",
"1X1X1X}.|.g |.3X}.v.b.g.v.'.}.xXoX~ '.D 0.P j :.4.m.] 4.{.Y.b.Y.H j.Q._ j.v.Q.+.#...r.#.j.XXQ.^ < 6 Z #.#.Z T -X` g 0 ' m.' ; = ",
"BXyX|.cX9.= 5.5._ g.v.E.oXQ.{.yXoXX.Y.L V.G G I ] 9.] ' {.oXvXiXQ.wXXXQ.+XQ.+XXX-XX.-XeXwX8XOXOXL.8XfXFXFXFXCXiXeX*X1XKXKX|.9.9.",
"Y K F G 7 j K 0 9 4 < d n e g n 9 m {.9.`.L L >. X' ] 9.*X1XwX-XwXXXQ.+X+X+X-X+X+X-X-X8X+X8X8X8Xo.8XuXdXmXdXpXiX^ t.3XAXAXbX>Xn.",
"L 0 $ 7 p <.C.z.9.+.^ ^ X.` X.v.T j.{.v. XP z )  X9.( +.1XoX+X+XQ.-XXX-X1XT.-X-X+X-X-X&X8XW.8XVXA 0XdXdXdXmXuXiXs j.}.nXAXKXyXt.",
"0.9.w.<.B.B.>.6.n.E.eXiXiXZXeX{.XXE.{.'.w.j z I q.[.' +.3X*X1XV {.-X-X-XyX}.}.wXwXoX=XwX8X;XOX8X%./.0XgXgXsXdXnX#.*X*XAXAXAX2X' ",
"' P <.Q <.<.>.) a.g.-XZXCXnXyXnXv.X.2Xz.' z z I q.V.c.+.2X:XXXt.2X}.&X2X-X-XoXoXwX-X-X-X&XwX;X(./ L.uXgXsXsXCXCXl.~.yXAXAXGX{.Y "
};
