/* XPM */
static char *cfd68e5e09664005f6c5fdb91b505fe3Jrkm5uzUR00kmGRk[] = {
/* columns rows colors chars-per-pixel */
"64 96 126 2 ",
"   c #171B1C",
".  c #171C1F",
"X  c #181C1D",
"o  c #191D1E",
"O  c #181E1E",
"+  c #191F1F",
"@  c #1A1E1F",
"#  c #181D20",
"$  c #191E21",
"%  c #1B1F20",
"&  c #1A1F22",
"*  c #1A2020",
"=  c #1B2121",
"-  c #1B2023",
";  c #1C2021",
":  c #1D2122",
">  c #1C2222",
",  c #1E2223",
"<  c #1C2124",
"1  c #1D2225",
"2  c #1F2324",
"3  c #1E2326",
"4  c #1F2427",
"5  c #202425",
"6  c #212526",
"7  c #222627",
"8  c #202528",
"9  c #212629",
"0  c #232728",
"q  c #22272A",
"w  c #23282B",
"e  c #242829",
"r  c #25292A",
"t  c #252B2B",
"y  c #262A2B",
"u  c #24292C",
"i  c #252A2D",
"p  c #272B2C",
"a  c #262B2E",
"s  c #262C2C",
"d  c #272D2D",
"f  c #272C2F",
"g  c #282C2D",
"h  c #292D2E",
"j  c #282E2E",
"k  c #292F2F",
"l  c #2A2E2F",
"z  c #272C30",
"x  c #282D30",
"c  c #292E31",
"v  c #2B2F30",
"b  c #2A2F32",
"n  c #2A3030",
"m  c #2B3131",
"M  c #2B3033",
"N  c #2C3031",
"B  c #2D3331",
"V  c #2D3132",
"C  c #2C3232",
"Z  c #2D3333",
"A  c #2E3233",
"S  c #2E3432",
"D  c #2C3134",
"F  c #2D3134",
"G  c #2D3235",
"H  c #2F3334",
"J  c #2E3235",
"K  c #2E3336",
"L  c #2F3336",
"P  c #2E3434",
"I  c #2F3535",
"U  c #2F3437",
"Y  c #303435",
"T  c #313536",
"R  c #303437",
"E  c #303636",
"W  c #313737",
"Q  c #323637",
"!  c #303538",
"~  c #313538",
"^  c #313639",
"/  c #333738",
"(  c #323639",
")  c #32373A",
"_  c #33373A",
"`  c #323838",
"'  c #333939",
"]  c #33383B",
"[  c #343839",
"{  c #35393A",
"}  c #34383B",
"|  c #343A3A",
" . c #353B3B",
".. c #363A3B",
"X. c #34393C",
"o. c #35393C",
"O. c #353A3D",
"+. c #373B3C",
"@. c #363A3D",
"#. c #363B3E",
"$. c #373B3E",
"%. c #363C3C",
"&. c #373D3D",
"*. c #373C3F",
"=. c #383C3D",
"-. c #393D3E",
";. c #383C3F",
":. c #383E3E",
">. c #393F3F",
",. c #3A3E3F",
"<. c #383D40",
"1. c #393D40",
"2. c #393E41",
"3. c #3B3F40",
"4. c #3A3E41",
"5. c #3B3F42",
"6. c #3A4040",
"7. c #3B4141",
"8. c #3C4041",
"9. c #3D4142",
"0. c #3C4043",
"q. c #3C4242",
"w. c #3E4243",
"e. c #3F4344",
"r. c #404445",
"t. c #414546",
/* pixels */
"    X X X X % X % % % % % % % % ; ; ; % % % ; ; ; ; ; ; ; ; ; ; ; 2 ; ; ; ; ; % X % % % X X X X ; X % X % X X X X X X X X       ",
"X X X X X X X % % X X % % % % ; ; ; ; ; ; ; ; ; ; ; ; ; ; ; 2 ; ; ; 2 ; ; ; % % % % X % % % % X % X ; X X X X X X X X X         ",
"X X % % X % ; ; ; % % % ; ; ; ; ; 2 ; ; ; ; 2 ; ; ; ; ; ; 2 ; 2 2 2 2 ; 2 ; ; % ; % ; ; % % % % ; X % X X % X X ; X % X X       ",
"; % X % % % % ; ; ; ; ; ; ; ; ; ; 2 5 2 2 ; 2 ; 2 ; 2 5 2 5 5 5 2 ; 2 2 2 2 ; ; ; ; ; ; ; ; ; ; ; % ; ; % ; ; ; % X X X X X X X ",
"; % % % % ; ; ; ; ; 2 ; 2 ; 5 2 ; 2 2 ; ; 2 2 5 ; 2 2 2 2 5 5 5 2 2 2 5 2 ; ; ; ; ; 2 ; ; ; ; ; ; ; ; ; ; ; ; ; % % % % X X X % ",
"% % ; ; ; ; ; ; 2 ; ; ; 2 ; ; 2 2 5 2 2 5 5 5 5 ; 5 5 5 5 5 5 5 5 5 5 5 2 2 2 5 2 ; 2 ; 2 2 2 2 ; ; ; ; 2 ; 2 ; ; ; % X % X X X ",
"; ; ; ; ; ; 2 ; 2 ; 2 2 2 2 5 5 5 5 5 5 5 5 5 0 5 5 5 5 5 5 0 5 5 5 5 5 2 2 2 2 2 2 2 2 2 ; ; 2 2 2 2 2 2 2 ; ; ; ; ; % % X ; % ",
"; ; ; ; ; ; ; 2 2 2 ; 2 2 2 2 2 5 5 5 5 0 5 5 0 5 5 5 e 0 5 5 5 0 0 5 5 5 5 5 5 2 2 2 ; 2 2 2 2 2 ; ; 2 ; 2 2 2 5 ; ; % ; % % X ",
"; 2 2 ; ; 2 2 2 2 2 5 5 5 0 5 5 5 e e 0 0 0 5 0 0 5 0 5 0 0 0 5 5 5 0 5 5 5 0 5 0 5 5 2 5 2 2 ; 2 2 2 5 2 2 ; 2 ; ; ; ; ; ; ; ; ",
"; ; ; ; 2 2 ; ; 5 5 5 5 5 5 5 0 5 0 0 0 0 0 0 e e 0 e 0 5 5 0 0 0 5 0 5 5 5 0 5 0 5 5 2 5 5 2 2 ; ; 2 5 2 5 2 2 ; 2 2 ; ; ; ; ; ",
"2 ; ; 5 ; 5 5 5 5 5 0 5 0 5 5 0 5 0 e e e e e e e e e 0 e 0 5 0 0 0 e 0 0 0 0 0 0 5 5 5 5 0 5 5 2 5 5 5 5 2 5 ; 2 ; 2 ; 2 ; ; ; ",
"; 2 ; 2 5 5 5 5 0 5 0 5 0 5 0 e 0 0 0 e e e e p e e e e 0 0 0 e 0 0 0 0 0 0 e e 0 5 5 5 5 5 0 5 5 5 5 5 5 5 5 5 5 2 5 2 2 ; 2 2 ",
"2 ; 5 5 5 5 0 5 5 5 5 0 0 e e e e e e e e e e p p e e e e e e e 0 0 e 0 0 0 e 0 5 5 5 5 5 0 5 5 5 5 5 5 5 5 0 0 5 5 5 5 2 2 ; 2 ",
"5 2 5 5 5 5 5 0 e 0 0 0 e e e p e e e e h p h p e e p e e e e p e e e e e e e e 0 0 5 5 5 5 5 5 5 5 5 5 0 5 5 5 5 0 5 5 5 2 2 5 ",
"5 5 5 5 5 0 0 0 0 0 e e e e e p e p e p p p p p h e p e e p e p e e p p e e e e 0 5 5 5 0 5 0 0 5 5 5 5 0 5 0 5 0 5 5 5 5 2 2 2 ",
"5 5 0 5 5 0 5 5 0 0 e e e p e e e e p p p h p p h h p p e p p e h p h e p e e e e 0 e 0 0 5 5 5 5 5 0 5 5 5 0 5 0 0 5 5 5 2 2 2 ",
"0 5 5 0 5 0 e e e e e e e e e p p p e p p p p p h e p p p e p h p p h p h p e h h e e e e e e 0 e 5 5 5 0 0 0 0 5 5 0 5 5 5 5 5 ",
"e e e e e e 0 0 e e p e p p p p p p p p p p p h p h h e p h p p p h p h e e h e p p e e e e e 0 e 0 e e e e 0 0 e 5 5 5 5 0 5 5 ",
"0 e e e e e e e p p p p p p p h h p h p h h h h h p h h h h h h h h h h h h h h p p p p h e e e p e e e e e e 5 0 5 0 0 5 0 5 0 ",
"5 e e e e p p e e e p p p p h p p h p h h h v h h h h v h v h h v h v h h h h h p h h h e h h e e e e h p p e e 0 0 e 5 0 5 5 5 ",
"5 e e e p p p p h p h p p h h h h p h h h v h N N h h h h h N N v v h v h v h v h h h h e h h h e p p e h e e e 0 0 0 e 0 5 0 5 ",
"e e p e e p p e e h p h h h h v h h h h h h v v N N v h v v N N v h h h v v v h N N h h h h h h p p p e p h p e e e e e 0 5 5 5 ",
"e e p p h e p e h p h h h h h v h h h v h v v N N N N N N N N H N N N v N N N N H N N N h h h v h h h h h e p p e e e p e e 0 5 ",
"e e e e p h h h h h v v N h N N v N v v N v N N N N N N N N N N Y H N N N N H H N N H N v v h h N v h p p h h e p p e p e e e 5 ",
"e e p h h p h h h h h h v N N N v N N N H N N N N N Y Y Y Y H Y / Y Y Y H N Y / Y Y H N N N N N N v h h h h h e p p e p e e 0 5 ",
"p h h p h h h v h v h v N N N N N N N Y H N H N Y Y Y Y Y / Y / Y Y Y Y Y Y Y Y Y Y N N N N N N N N N v h h h h p p h p e e e 0 ",
"p p h h h h h v v v N v N N N N N H Y Y Y Y Y N Y Y / / Y Y Y / / Y / Y / Y Y Y Y Y v v N N Y Y H N N N N N h h h h h e p e e 0 ",
"h h h h h h N N N N N N N N H H Y Y Y Y Y Y Y Y H Y / Y / / Y Y [ / / / / / Y / Y N N h N N H Y H H N N N N N h h h h h h p e e ",
"h h h h h v v N N N H N N Y N Y Y Y Y Y Y Y Y Y Y / / / Y / [ / / / / / Y Y / / Y Y N N N H H Y N N H N N N N v h v h v h h e p ",
"h h h h v h N N H N N N N H H H Y Y H H H H H Y Y Y / / / Y Y Y / [ / / / [ [ Y Y Y Y Y Y H N N H N N N N N N h v h v h h p h e ",
"p h h v v v N N N N N N N N Y H H H H H H Y Y Y / Y [ [ / Y Y Y Y [ [ [ [ [ [ Y / Y Y Y Y H H N H N N N N N v v h h h h h h p p ",
"p h v v N N N N N v N N H H H H Y Y Y Y Y Y Y [ [ [ [ [ [ / / / Y [ [ [ [ +.[ Y [ Y Y Y Y Y H H H H H N N N N v p h p h p p h e ",
"h v N N v v N N N v N v N H Y Y Y Y Y Y Y / / [ / +.+.[ [ [ +.[ [ [ [ [ [ [ / Y / Y / / Y Y H N S S P N P Z C C d d d d d d d d ",
"h v N v v v N H N H N N H Y Y Y Y / Y Y / / [ [ [ +.=.+.+.[ +.[ +.+.[ +.+.+.[ [ [ [ [ Y / Y Y Y S S P P P Z C d k k d d d d d d ",
"h h v v v v N N H H H H H H Y Y [ / / / / / [ +.+.=.=.=.=.+.=.+.+.=.+.=.=.=.+.[ [ [ [ / / Y / Y P P P P P Z C C C d C C z z p i ",
"h v v v v v v H N H Y Y Y Y Y Y / / [ [ [ [ +.=.=.=.=.3.3.=.=.=.[ =.+.=.=.=.[ [ [ +.[ [ [ / [ / ' W Y P S C C C d C d d z z z z ",
"v v v v v N N N N H H H / Y Y Y [ [ [ [ [ +.+.=.+.3.3.3.3.=.=.=.=.=.=.3.=.=.=.=.=.+.[ +.[ [ [ [ ' ' E W P P P P C C M z C v z z ",
"h v v v N N H H H H H Y Y Y [ [ [ [ [ +.+.+.+.=.=.=.3.3.3.3.3.3.8.8.8.3.=.=.=.=.=.=.=.=.=.+.+.+.' ' ' W W P P P Z M M M C z v z ",
"v v v v N H H N Y Y Y Y / / [ [ [ +.+.+.+.=.=.3.8.8.3.8.8.3.3.3.8.3.3.=.=.=.=.8.=.3.=.=.=.=.[ [ W ' ' W E P P P P M M M M b M z ",
"v N N N H N H H / Y / Y Y / / [ =.+.+.+.=.=.3.3.e.8.8.e.3.3.=.3.8.8.8.3.3.=.=.8.=.=.3.3.=.+.+.[ ' W W W P P P W K K M M b b C z ",
"v v N N H N H H / / / Y / / [ [ +.+.3.3.=.3.=.3.3.3.8.e.3.3.8.8.e.8.8.=.=.3.3.=.3.3.8.3.3.=.[ [ ' ' ' ' W E K P K H M M M b b b ",
"v v N N H Y Y Y / / / / / / [ +.[ +.=.=.=.=.=.3.3.3.8.8.3.3.8.8.8.8.3.3.3.=.3.3.3.=.3.3.3.=.+.[ ' ' W W W W W K K G G M M M b z ",
"v v v v H Y Y Y Y Y Y / / [ [ [ +.=.=.=.=.3.=.3.3.3.3.3.3.8.3.8.8.3.=.=.3.8.8.8.=.=.3.3.=.=.=.[ ' ' ' ' W E K K K G G M z C z z ",
"v v v v H H Y H N H Y Y / Y / Y +.[ +.+.=.=.=.3.8.8.8.8.8.8.8.8.8.8.3.8.=.3.8.8.3.3.3.3.3.=.=.[ ' ' ' W ' W ) K G G G M C z z z ",
"N v N N H Y H H Y Y / / / / / / [ +.+.=.=.=.3.3.3.3.8.e.e.8.8.8.e.8.3.=.3.8.3.8.3.3.8.=.=.3.+.[ | ' ' ' ) ) K ) K K K M v z z i ",
"h v N N H H Y Y Y Y / / / / / [ [ [ [ =.=.3.3.=.3.3.8.e.8.8.8.8.e.8.3.3.3.=.3.3.=.8.8.=.=.=.=.+.| ' ' ' ] ) ) K K K M M b z z p ",
"h v v H H H Y Y H Y Y / / Y / Y +.+.+.=.3.=.=.=.=.3.3.8.8.8.8.8.e.8.3.3.3.3.3.3.3.8.3.=.+.=.=.+.] ] ] ' ) K / K K K K M z z z z ",
"v N H H H Y Y / H Y / Y Y / / / +.+.=.=.3.3.+.+.=.=.3.3.e.8.8.e.8.8.=.=.=.3.3.3.3.8.=.+.[ =.=.[ ] ] ] K ) K K K K K M M C z z z ",
"v M K M K K ~ K ~ ~ ~ ~ ^ ~ o.o.[ +.+.=.3.3.=.=.=.+.=.3.8.e.8.8.8.3.8.8.3.8.8.=.0.0.4.<.o.o.+.o.] ] K K K ] K K K M M b z z z d ",
"M H K K K K K ~ ~ / ~ ~ _ o.o.o.[ +.=.=.=.3.3.3.3.3.8.8.e.e.8.8.8.3.3.3.3.8.8.=.4.4.4.<.<.<.o.) ] ) K K K ] K K K K K M M M M z ",
"M K K K K ~ ~ ~ ^ ~ ) o.~ o.o.o.+.+.=.=.=.3.3.3.3.3.e.r.t.r.e.8.3.3.3.=.=.3.8.8.$.4.4.4.<.<.o.o.] ] ] ] ] K K M M M M M G M M M ",
"M M K M K ~ ~ ~ ^ o.o.~ o.~ o.o.=.=.=.+.3.3.3.3.8.e.e.r.t.e.e.e.3.=.3.3.+.=.8.8.$.4.4.<.<.<.<.) ] ] ] K K K K K M M K M K P M M ",
"b M M M K K ~ K ( ( _ _ ~ ^ o.o.+.=.3.3.3.3.3.3.e.e.r.e.e.e.e.e.8.8.8.3.+.=.8.3.4.4.4.4.<.<.<.) ] ] ] K K K ] K M G M M M M M M ",
"b b b b K K ~ K ( ~ _ _ o.o.o.$.+.3.=.3.=.3.3.=.8.e.8.e.8.8.e.e.8.8.3.3.+.3.e.7.4.4.4.$.] <.+.) ] ] ] K ] K K K M M G M M M b M ",
"b b b K K K / ) ( o._ _ _ _ o.o.=.=.3.=.=.8.3.3.8.8.e.8.8.8.8.8.7.7.3.&.&.7.8.3.<.<.$.o.] <.<.] ] ) K K K K K K G M M M b M b b ",
"b b M M M K K ) _ ( _ _ _ _ ~ o.=.3.=.=.=.3.3.3.8.8.e.e.e.3.3.8.7.=.&.&.=.8.8.<.<.<.o.o.] <.] ) ] ] ] ) ] K ] K M M M v z b z b ",
"b G b K b ~ ~ ~ ~ o.o.( ~ ( o.o.=.=.=.=.3.3.3.3.3.3.3.3.3.=.3.=.&.[ &.&.>.&.6.7.<.<.) <.<.<.<.) ] ] ) ) K K K K K M M b b z z z ",
"b b b b b b J b ~ ( _ _ ( ( o.o.+.=.=.=.=.=.3.=.3.3.3.3.3.3.3.=. .&.| &. .&.| &.<.<.] ] <.] ] ] ] K K K K K K K G G M M b z C z ",
"b b G K ~ ~ ~ ~ ~ ( o._ ~ _ o.o.[ =.=.=.+.+.=.=.3.3.3.3.3.7.3.=.&.&.&.&. . .&.&.<.] ] ] ) ] ] K K K K K K K K K M M M M v z z d ",
"b b b K G ~ ~ ~ ~ ~ ~ _ ( ( _ o.+.+.=.=.=.=.=.=.3.3.=.3.8.3.3.+.&.>.&. .' ' &.&.] ] ) ] ) ) ) K K K K M K K K M M M b z b z z p ",
"c z b H b ~ ~ ~ ~ ~ ~ ~ ( o.( o./ [ =.+.=.=.=.=.=.3.=.=.3.3.=.+.| &.' ' ' ' ' ' ] ) ) ] ) ) ) K K K K K M M M M M z z z z z d i ",
"z b b b b ~ J L J ~ ~ ~ ( ( _ ( / [ [ +.+.+.=.=.=.=.=.=.=.=.+.+.' ' ' ' W ' ' ' ] ) ) K ) ) ) K K K K M M b M b M C z d z z z i ",
"z z b b J b J ~ L L ~ ~ ~ ( ~ ( / / [ [ [ +.+.+.+.+.=.=.&.+.+.&. . .' ' ' ' ' | ) ) K ) K ) K / K K K M M b M z z z z z z z i i ",
"p z c b b b b b ~ b L ~ ~ ( ( ( / [ [ +.+.[ [ +.[ +.+.+.+.+.+.[ &.&.&.&.| ' ' | ) ) ) ) ] K K K K K K M M b M v C z z p z p i i ",
"z z z z z z v v G K K K K K K ] K ] ] ] ] <.] <.] ] <.] ] ] ] <.<.] <.] ] ] ] ] ] ) K K K K K K K G M M M M z M z z i i i i i u ",
"u p z p z v z b G G K K K K K ) ) K ) ) ] ] ] ) <.] ] ) ] ] ) ) ] ] ] ] ] ] ] ] ) K ) K K K K G G G M M M z C z p z d z i i u i ",
"u u z z z z b b M M K K K K ) ) ) ) ) ) ] ) ) ) ) ) ] ) ) ] ) K ] ] ] ) ) ) ) ] ) ) K K K G M M G M M M C z z z z i z i i i u i ",
"u u u z z z z b b M G K ) K K ) K ) K ) ] ] K ) ) ) ) ) ) ) K ) ) ] K ) K ) K ] K K K K K M M M M M M b z z z z z d i i i i 4 i ",
"u 4 i i z z z z v v M G K K K K K K K K K ) ) ) ) ) K ) K ) K K ] K ) ) K ] K K K K G G M M M M M M M z z z z p i i i i i w 4 i ",
"u u u i p p z z z C b M M H K K G K G K K K K K K K ) ) ) K ) K K K K K K K K K K K K G M G M M M M v z d p p z z d i i w w i i ",
"u u i i i i z d z z z b M M M K G G G K K K K K K K ) K ) K K K K K K K ) K K G K K M M G M M M M b C z z z z i i i i i w w w 4 ",
"4 u i i i i i p z z z z b b M M M G M G G G G G G G K K K K K K K K K K K K K G G M M G M G M M b b z z p i i z i i i i i 4 i 4 ",
"u u u u u u i z i z z z C z C b M M M M M M M M M G G K K K G G M M K K K M M M M M b b b M b v z z C z z z i w i i w w i w 4 4 ",
"4 i 4 u u u i i i p z z z z z v M M M M M M M M M M G G G G K M M M M M M M M M M M b v z v z C z z d z z i i i i w w w 4 i 4 i ",
"i 4 u 4 i u i i i z p z z z z z v z M b z b M b M M M M G M M M b b b M M b b M M b z C z z z z z z p z z i i i 4 i w 4 4 4 4 4 ",
"4 i 4 i 4 u i i i i d i d z z z z b z C z z z v M M M M M M M M b b b b b v b z b z z C z z z z p z i i i i 4 i i w i 4 i 4 4 4 ",
"i 4 4 u u u u i i i i i i i i d z z v b z z z v z C z v M M z M v z M C z C v z z v z z z d i i z i i i i i i 4 4 i i 4 4 4 4 3 ",
"u 4 4 u u 4 u i i i u i i i z i z v z z z z d z z z z z z z z z z C z z z z z v z z C z z i z i i i 0 i 4 i i 4 4 4 4 w 4 4 3 3 ",
"3 3 4 4 4 i u u 4 u u u i i p i z z z z z p z z z z z d z d z v z z z z z v z z z z z z z i i i u 4 i i i i i i i i 4 4 4 4 4 3 ",
"3 3 4 4 i 4 4 4 i u u u i z z z d z z z z p d d z z z d z z z z v z d z z z z z d z d z i i u i 4 i 4 i i 4 4 4 4 4 4 4 4 4 3 3 ",
"4 4 4 4 4 i 4 i i i 4 i 4 w i i d p z z z i i i i i d z i i z i i i z z d z i z i i i i i u u u 4 4 4 4 i 4 i 4 4 4 4 4 1 1 1 1 ",
"3 4 4 4 4 4 4 4 4 4 i 4 i i i i i i i i z i i i i i i i i i i i i i i z p i i i i i i i u i 4 i i 4 i 4 4 4 4 4 4 4 4 3 1 1 1 1 ",
"1 3 4 4 4 4 4 i i 4 i i 4 i i 4 i i i i i i i i i i i i i 0 i i u i i z i i i u u i i u i i i 4 4 i i 4 4 4 4 4 4 4 3 3 1 1 1 1 ",
"3 3 4 4 4 4 4 i i 4 4 4 4 i i 4 4 4 i 0 i 4 u 4 i 4 i 4 i i i i u i i i i i i u 4 i i 4 4 i 4 i 4 4 4 4 4 4 3 3 4 4 3 1 1 1 1 1 ",
"3 3 3 4 4 4 4 4 4 4 4 4 4 i 4 i i 4 i u 4 i i u 4 i 4 i 4 i u 4 i i 4 4 i i 4 u i 4 4 i 4 4 4 4 4 4 4 4 3 3 3 3 4 1 1 1 1 1 & & ",
"1 1 1 1 3 3 4 4 4 4 4 4 4 4 4 4 i 4 4 i i 4 4 i i 4 i i i 4 4 i 4 i i u 4 4 i i i 4 i 4 4 i i 4 4 3 3 3 3 3 3 3 3 1 1 1 1 & & 1 ",
"1 & 1 1 1 1 3 3 4 4 4 4 4 4 4 4 4 4 4 4 4 i 4 4 4 i 4 4 i 4 4 i i 4 4 i i 4 i 4 4 4 i 4 4 4 4 4 3 3 3 3 1 1 1 1 1 1 1 & 1 $ $ $ ",
"1 1 = 1 1 1 3 3 4 4 4 4 4 4 3 3 4 4 4 4 4 4 4 i 4 4 i 4 4 4 4 4 4 4 4 4 i 4 4 4 4 4 4 4 4 4 4 i 4 4 3 3 1 & 1 1 1 1 1 & & & $ $ ",
"$ & 1 1 1 3 3 3 1 1 3 3 3 4 4 4 4 4 4 4 4 4 4 4 4 i 4 i 4 i 4 4 4 4 4 4 4 i 4 4 4 4 4 4 3 3 3 3 4 4 3 3 1 1 & 1 1 1 & 1 $ $ $ # ",
"& & & & 1 1 1 3 1 1 1 3 3 3 1 1 3 4 4 4 4 4 4 3 4 4 4 4 4 4 4 4 4 4 4 4 4 4 4 4 4 4 4 3 3 3 3 1 4 4 3 1 1 1 & 1 & 1 & & & $ $ $ ",
"& 1 & 1 1 1 1 1 1 1 1 1 1 1 1 1 1 3 3 3 4 4 1 3 4 4 4 4 4 4 4 4 4 4 3 3 3 3 3 3 4 3 3 3 3 1 1 1 1 1 1 1 1 1 1 1 & & & $ $ $ $ $ ",
"& & & 1 & & & 1 1 = 1 1 1 1 1 1 1 1 1 3 4 4 1 1 4 4 4 4 4 4 4 4 3 3 3 3 3 1 1 1 1 1 1 1 1 1 1 1 1 1 & & & & & & & & $ $ $ $ $ $ ",
"= = * = $ * = = = = = > > > = 1 1 & 1 1 1 1 1 1 1 3 3 3 4 3 3 3 1 3 3 1 1 1 1 1 1 & 1 1 & 1 1 1 & 1 1 & & 1 & & * & & $ $ $ . $ ",
"O O O O * * * * = = = = = = = = 1 1 1 1 1 1 1 1 1 1 1 3 4 4 3 3 1 1 1 1 1 1 & 1 1 1 1 & 1 1 & & & & $ $ & & $ 1 $ * & $ . . $ . ",
"O O O O * O * * = * * * = = = = & 1 & 1 1 & 1 & & 1 & 1 1 1 1 1 1 1 1 1 & & & 1 & 1 1 & 1 & & & & & $ $ $ $ $ $ $ $ $ . $ . . . ",
"O O O O . O $ * O * O * * * * $ & & & & 1 & & 1 & & 1 1 & 1 1 1 1 1 & & 1 & & $ 1 1 1 & & & 1 1 & & $ $ # $ $ $ $ . $ $ . $ $ * "
};
