/* XPM */
static char *door11693933599[] = {
/* columns rows colors chars-per-pixel */
"64 64 34 1 ",
"  c #000D28",
". c #000E29",
"X c #003B64",
"o c #005793",
"O c #005794",
"+ c #005C9C",
"@ c #005FA1",
"# c #0061A5",
"$ c #0065AB",
"% c #0066AD",
"& c #0069B3",
"* c #006AB4",
"= c #006BB6",
"- c #006CB7",
"; c #006DB9",
": c #006FBC",
"> c #0070BD",
", c #0372BF",
"< c #0774C0",
"1 c #0B76C1",
"2 c #0D77C1",
"3 c #0F78C2",
"4 c #117AC2",
"5 c #157CC3",
"6 c #177DC4",
"7 c #197EC4",
"8 c #1B7FC5",
"9 c #1F81C6",
"0 c #2182C6",
"q c #2384C7",
"w c #2585C7",
"e c #2786C8",
"r c #2987C8",
"t c #2F8ACA",
/* pixels */
"tttttttttto233333q888088088088088088088088088*12423e3ttttttttttO",
"t333333333o899998533333333333333333333333333<;99090r3t333333333O",
"t333333333o:>>>><<33333333333333333333333333<%:<::::3t333333333O",
"t333333333o$%%%%%<33333333333333333333333333<@%%%%%-3t333333332O",
"t333333324o122222533333333333333333333333333<*22222e3t233333333O",
"t333333332o133333533333333333333333333333333<-3333203t423333333O",
"ooooooooOoo133333833333333333333333333333332<-33333e3OOOoooooooo",
"tttttttttto133333533333333333333333333333332<*33333r3tttttttttto",
"t333333333o588668533333333333333333333333333<;88888r3t333333333o",
"t333333333o245454433333333333333333333333333<;4444453t333333333o",
"t333333333o@@@@@@<33333333333333333333333333<+@@@@@#3t333333333o",
"t333333333o111121833333333333333333333333333<%1212203t333333333o",
"t333333332o123333823333333333333333333333333>*33233r3t333333333o",
"ooooooooOoo1333326233333333333333333333333332*33232e3ooooooooooo",
"tttttttttto233332633333333333333333333333333,*42222e3tttttttttto",
"t333333333O4555558333333333333333333333333332*65555e3t333333333o",
"t333333333oqreeee623333333333333333333333242<:rrrrettt333333333o",
"t333333333otXXXXXXXXXXXXXXXXXXXXXXXXXXXXXXXXXXXXXXXXtt333333333o",
"t333333333otoXXXXXXXXXXXXXXXXXXXXXXXXXXXXXXXXXXXXXXOtt333333333o",
"t333333333otooXXXXXXXXXXXXXXXXXXXXXXXXXXXXXXXXXXXXoOtt333333333o",
"OOOOOOOOoootoooXXXXXXXXXXXXXXXXXXXXXXXXXXXXXXXXXXoootoOOoooooooo",
"ttttttttttotoooo                                oooottttttttttto",
"t333333333otoooo                                oooott233333333o",
"t333333333otoooo                                oooott233333333o",
"t333333333otoooo                                oooott333333333o",
"t333333333otoooo                                oooott333333333o",
"t333333333otoooo                                oooott333333333o",
"OOOOOOOOOOotoooo                                ooootooooooooooo",
"ttttttttttotoooo                                oooottttttttttto",
"t333333333otoooo                                oooott333333333o",
"t333333333otoooo                                oooott333333333o",
"t333333333otoooo                                oooott333333333o",
"t333333333otoooo                                OOOott333333333o",
"t333333333otoooo                                OOoott333333333o",
"OOOOOOOOOOotoooo                                ooootooooooooooo",
"ttttttttttotoooo                                oooottttttttttto",
"t333333333otoooo                                oooott333333333o",
"t333333333otoooo                                oooott333333333o",
"t333333333otoooo                                oooott333333333o",
"t333333333otoooo                                oooott333333333o",
"t333333333otoooo                                oooott333333333o",
"OOOOOOOOOOotoooo                                ooootooooooooooo",
"ttttttttttotoooo                                oooottttttttttto",
"t333333333otoooo                                oooott333333333o",
"t333333333otooOO                                oooott333333333o",
"t333333333otooOO                                oooott333333333o",
"t333333334otooOO                                oooott333333333o",
"t333333344otooOO                                oooott333333333o",
"OOOOOOOOOOotoooo                                ooootooooooooooo",
"ttttttttttotoooo                                oooottttttttttto",
"t333333333otoooo                                oooott333333333o",
"t333333333otoooo                                oooott333333333o",
"t333333333otoooo                                oooott333333333o",
"t333333333otoooo                                oooott333333333o",
"t333333333otoooo                                oooott333333333o",
"OOOOOOOOOOotoooo                                ooootOOOOOOOOOOo",
"ttttttttttotoooo                                oooottttttttttto",
"t333333333otoooo                                oooott333333333o",
"t333333333otoooo                                oooott333333333o",
"t333333333otoooo                                oooott333333333o",
"t333333333otoooo                                oooott333333333o",
"t333333333otoooo                                oooott333333333o",
"oooooooooootoooo                                ooootooooooooooo",
"OOOOOOOOOOOtOOOO........................        OOOOtOOOOOOOOOOO"
};
