/* XPM */
static char *tile0701693927156[] = {
/* columns rows colors chars-per-pixel */
"64 64 10 1 ",
"  c #061021",
". c #0B192F",
"X c #0B1B33",
"o c #14274E",
"O c #132B4B",
"+ c #19315C",
"@ c #1E386D",
"# c #23437F",
"$ c #2B5397",
"% c #335FB3",
/* pixels */
"%%%$$$$$$%%%%%%%%%%%%%%%$$%$$OOX@@@++++++@@@@@@@@@@@@@@@++@++.. ",
"%%$$$$$$$$$$$$$%%%%$$$$$$$$$$$OX@@+++++++++++++@@@@+++++++++++. ",
"%$$$$#######$$$$$$$$$$$$$$$$#OOX@++++ooooooo++++++++++++++++o.. ",
"%$$$################$$$$$$##OXXX@+++oooooooooooooooo++++++oo.   ",
"%$$$########################OOXX@+++oooooooooooooooooooooooo..  ",
"%$$$#########################OXX@+++ooooooooooooooooooooooooo.  ",
"$$$##########################OOX+++oooooooooooooooooooooooooo.. ",
"$$############################OX++oooooooooooooooooooooooooooo. ",
"$$############################OX++oooooooooooooooooooooooooooo. ",
"%$$##########################OXX@++oooooooooooooooooooooooooo.  ",
"%$$##########################OXX@++oooooooooooooooooooooooooo.  ",
"%$$########################OOOXX@++oooooooooooooooooooooooo...  ",
"$$##################OO####OXXOXX++oooooooooooooooooo..oooo.  .  ",
"$$OOO######OOOOOO#OOOOOOOOXXXXXX++...oooooo......o........      ",
"OOXXOOOOOOOOXXXXXOOXXXXOOXXXXXXX..  ........     ..    ..       ",
"XXXXXXXXXXXXXXXXXXXXXXXXXXXXXXXXXXXXXXXXXXXXXXXXXXXXXXXXXXXXXXXX",
"%%%%%%%%$$%$$OOX@@@++++++@@@@@@@@@@@@@@@++@++.. %%%$$$$$$%%%%%%%",
"%%%$$$$$$$$$$$OX@@+++++++++++++@@@@+++++++++++. %%$$$$$$$$$$$$$%",
"$$$$$$$$$$$$#OOX@++++ooooooo++++++++++++++++o.. %$$$$#######$$$$",
"####$$$$$$##OXXX@+++oooooooooooooooo++++++oo.   %$$$############",
"############OOXX@+++oooooooooooooooooooooooo..  %$$$############",
"#############OXX@+++ooooooooooooooooooooooooo.  %$$$############",
"#############OOX+++oooooooooooooooooooooooooo.. $$$#############",
"##############OX++oooooooooooooooooooooooooooo. $$##############",
"##############OX++oooooooooooooooooooooooooooo. $$##############",
"#############OXX@++oooooooooooooooooooooooooo.  %$$#############",
"#############OXX@++oooooooooooooooooooooooooo.  %$$#############",
"###########OOOXX@++oooooooooooooooooooooooo...  %$$#############",
"####OO####OXXOXX++oooooooooooooooooo..oooo.  .  $$##############",
"O#OOOOOOOOXXXXXX++...oooooo......o........      $$OOO######OOOOO",
"XOOXXXXOOXXXXXXX..  ........     ..    ..       OOXXOOOOOOOOXXXX",
"XXXXXXXXXXXXXXXXXXXXXXXXXXXXXXXXXXXXXXXXXXXXXXXXXXXXXXXXXXXXXXXX",
"$%%%%%%%%%%%%%%%$$%$$OOX@@@++++++@@@@@@@@@@@@@@@++@++.. %%%$$$$$",
"$$$$$$$%%%%$$$$$$$$$$$OX@@+++++++++++++@@@@+++++++++++. %%$$$$$$",
"####$$$$$$$$$$$$$$$$#OOX@++++ooooooo++++++++++++++++o.. %$$$$###",
"############$$$$$$##OXXX@+++oooooooooooooooo++++++oo.   %$$$####",
"####################OOXX@+++oooooooooooooooooooooooo..  %$$$####",
"#####################OXX@+++ooooooooooooooooooooooooo.  %$$$####",
"#####################OOX+++oooooooooooooooooooooooooo.. $$$#####",
"######################OX++oooooooooooooooooooooooooooo. $$######",
"######################OX++oooooooooooooooooooooooooooo. $$######",
"#####################OXX@++oooooooooooooooooooooooooo.  %$$#####",
"#####################OXX@++oooooooooooooooooooooooooo.  %$$#####",
"###################OOOXX@++oooooooooooooooooooooooo...  %$$#####",
"############OO####OXXOXX++oooooooooooooooooo..oooo.  .  $$######",
"###OOOOOO#OOOOOOOOXXXXXX++...oooooo......o........      $$OOO###",
"OOOOXXXXXOOXXXXOOXXXXXXX..  ........     ..    ..       OOXXOOOO",
"XXXXXXXXXXXXXXXXXXXXXXXXXXXXXXXXXXXXXXXXXXXXXXXXXXXXXXXXXXXXXXXX",
"$$%$$OOX@@@++++++@@@@@@@@@@@@@@@++@++..X%%%$$$$$$%%%%%%%%%%%%%%%",
"$$$$$$OX@@+++++++++++++@@@@+++++++++++.X%%$$$$$$$$$$$$$%%%%$$$$$",
"$$$$#OOX@++++ooooooo++++++++++++++++o..X%$$$$#######$$$$$$$$$$$$",
"$$##OXXX@+++oooooooooooooooo++++++oo.  X%$$$################$$$$",
"####OOXX@+++oooooooooooooooooooooooo.. X%$$$####################",
"#####OXX@+++ooooooooooooooooooooooooo. X%$$$####################",
"#####OOX+++oooooooooooooooooooooooooo..X$$$#####################",
"######OX++oooooooooooooooooooooooooooo.X$$######################",
"######OX++oooooooooooooooooooooooooooo.X$$######################",
"#####OXX@++oooooooooooooooooooooooooo. X%$$#####################",
"#####OXX@++oooooooooooooooooooooooooo. X%$$#####################",
"###OOOXX@++oooooooooooooooooooooooo... X%$$#####################",
"##OXXOXX++oooooooooooooooooo..oooo.  . X$$##################OO##",
"OOXXXXXX++...oooooo......o........     X$$OOO######OOOOOO#OOOOOO",
"OXXXXXXX..  ........     ..    ..      XOOXXOOOOOOOOXXXXXOOXXXXO",
"XXXXXXXX                               XXXXXXXXXXXXXXXXXXXXXXXXX"
};
