/* XPM */
static char *_86de8171de2487cdf76168cd1cfb3fdtFWrOzzGBdZGxcpb[] = {
/* columns rows colors chars-per-pixel */
"64 64 246 2 ",
"   c #321311",
".  c #411D1B",
"X  c #4A231E",
"o  c #432322",
"O  c #4C2C2B",
"+  c #4A2725",
"@  c #532C2B",
"#  c #572A28",
"$  c #4C322D",
"%  c #443226",
"&  c #54322D",
"*  c #59342D",
"=  c #4C3833",
"-  c #543532",
";  c #5C3534",
":  c #543A35",
">  c #5C3A35",
",  c #553C39",
"<  c #5B3C3A",
"1  c #5B3538",
"2  c #592F33",
"3  c #653A2F",
"4  c #633634",
"5  c #623C36",
"6  c #6B3B36",
"7  c #64363A",
"8  c #643D3C",
"9  c #6B3C3C",
"0  c #6C363A",
"q  c #743C3D",
"w  c #783B38",
"e  c #632F30",
"r  c #5C423C",
"t  c #58453C",
"y  c #5E422E",
"u  c #634235",
"i  c #64433C",
"p  c #6B433D",
"a  c #68493D",
"s  c #73423D",
"d  c #76443B",
"f  c #6A4534",
"g  c #593F40",
"h  c #643D40",
"j  c #6B3E42",
"k  c #733E44",
"l  c #5D4441",
"z  c #5D4B44",
"x  c #574843",
"c  c #5E5149",
"v  c #634543",
"b  c #6C4444",
"n  c #644A44",
"m  c #6B4A44",
"M  c #6C4649",
"N  c #664C4A",
"B  c #6B4C4A",
"V  c #644549",
"C  c #724444",
"Z  c #7C4544",
"A  c #734A45",
"S  c #7C4A45",
"D  c #744649",
"F  c #7A464A",
"G  c #734C4B",
"H  c #7B4C4C",
"J  c #6B5145",
"K  c #66534B",
"L  c #6C524C",
"P  c #6A574B",
"I  c #74524C",
"U  c #7B524D",
"Y  c #78554B",
"T  c #6B4E52",
"R  c #7C4D51",
"E  c #774F50",
"W  c #6D5452",
"Q  c #6D5A54",
"!  c #675553",
"~  c #745352",
"^  c #7C5453",
"/  c #745A54",
"(  c #7B5B54",
")  c #735558",
"_  c #7D5759",
"`  c #755C5B",
"'  c #7C5C5A",
"]  c #7D6156",
"[  c #74635B",
"{  c #7B635C",
"}  c #766256",
"|  c #7C5E61",
" . c #7D6461",
".. c #7D6B64",
"X. c #7E6D6A",
"o. c #7E7169",
"O. c #814B46",
"+. c #834C4B",
"@. c #8B4C4C",
"#. c #814545",
"$. c #83524D",
"%. c #8A524D",
"&. c #844D52",
"*. c #884E53",
"=. c #845453",
"-. c #8B5453",
";. c #835A55",
":. c #8B5A55",
">. c #84555A",
",. c #8B555B",
"<. c #835B5C",
"1. c #8B5C5C",
"2. c #935453",
"3. c #925956",
"4. c #935C5C",
"5. c #9B5C5C",
"6. c #93565A",
"7. c #91564C",
"8. c #83635B",
"9. c #8B635D",
"0. c #89695D",
"q. c #92625E",
"w. c #976A5E",
"e. c #A4605F",
"r. c #845E61",
"t. c #8C5D62",
"y. c #935D62",
"u. c #985C63",
"i. c #846362",
"p. c #8C6363",
"a. c #846B64",
"s. c #8C6B64",
"d. c #856E6A",
"f. c #8C6D6C",
"g. c #896569",
"h. c #936363",
"j. c #9B6363",
"k. c #936A64",
"l. c #996A66",
"z. c #966669",
"x. c #9B656B",
"c. c #936C6B",
"v. c #9B6B6C",
"b. c #847266",
"n. c #8D7265",
"m. c #85746B",
"M. c #8B736C",
"N. c #8C7A6D",
"B. c #93736C",
"V. c #9C716C",
"C. c #947A6E",
"Z. c #98756B",
"A. c #8C7572",
"S. c #8D7B73",
"D. c #8A7977",
"F. c #937473",
"G. c #9B7374",
"H. c #937B73",
"J. c #9B7B74",
"K. c #957D79",
"L. c #9B7B7B",
"P. c #987779",
"I. c #966E70",
"U. c #A46362",
"Y. c #A66969",
"T. c #A2706D",
"R. c #A26F73",
"E. c #A27474",
"W. c #A27C75",
"Q. c #A47579",
"!. c #A37C7A",
"~. c #AA7978",
"^. c #B37D7D",
"/. c #A25E5B",
"(. c #9B8176",
"). c #95837B",
"_. c #9B837C",
"`. c #9C897D",
"'. c #948176",
"]. c #A2847C",
"[. c #AB837E",
"{. c #A2887E",
"}. c #AF887E",
"|. c #9C7E82",
" X c #A97E80",
".X c #B27D82",
"XX c #9C8582",
"oX c #9D8B84",
"OX c #9B8988",
"+X c #9D988D",
"@X c #A58483",
"#X c #AC8582",
"$X c #A48B84",
"%X c #AB8B84",
"&X c #A58D8A",
"*X c #AC8C8A",
"=X c #A98688",
"-X c #B28986",
";X c #B48D8C",
":X c #B78686",
">X c #AB9184",
",X c #A4938B",
"<X c #AC938C",
"1X c #A99589",
"2X c #B3938C",
"3X c #B6948B",
"4X c #AD9491",
"5X c #AC9A93",
"6X c #A69693",
"7X c #B49492",
"8X c #BD9594",
"9X c #B49B94",
"0X c #BA9B94",
"qX c #B59C99",
"wX c #BD9D9A",
"eX c #BF9798",
"rX c #B48F91",
"tX c #BBA194",
"yX c #B3A39C",
"uX c #BDA29C",
"iX c #B6A498",
"pX c #BCA38F",
"aX c #BB9EA0",
"sX c #BCA5A1",
"dX c #BEAAA3",
"fX c #B7A6A3",
"gX c #B8B1A7",
"hX c #C1948F",
"jX c #C49C9B",
"kX c #C69997",
"lX c #C78B8E",
"zX c #C4A29C",
"xX c #CBA29D",
"cX c #CB9FA1",
"vX c #C4A5A3",
"bX c #C3ABA5",
"nX c #C9ACA4",
"mX c #C9AAA7",
"MX c #D5ADAB",
"NX c #C7B3AA",
"BX c #D6B8AE",
"VX c #CBB8B2",
"CX c #D5B8B6",
"ZX c #E0AFAB",
"AX c #D4C3BB",
"SX c #EDCFC9",
/* pixels */
"gX+X+XD.[ ..X.A._.&X&X).&X).fX5XD.OX,X,XOXOXOXOXD.A.OXOXfX! X.H.!.W.W.].$X$XoX).oXA.CXOXfXOXD.|.|.|.=X@XrX|.aX@X&X$XXXK.).OX6XqX",
"! c o.m. .a.` / ~ ( i./ / n H.M.) ) ) W T W ) ` ) l T ` &XV ) ~ G S G U ^ _ / / v , XXB | T V B ^ R >.R r._ L.r.M V V N B T W ) ",
"' ~ f.c.p.z.t.t.1.,.x.z.<.D  XQ.t.>.>.R >.>.>.>.r.H R t.;XR >.R &.+.*.*.+.R ^ ;.>.t.jXt.t.&.&.&.,.y.x.,.y.,.Q.&.R =.,.t.y.t.t.>.",
"F.i.G.p.^ <.,.h.t.>.z.z.1.G !.c.t.p.h.z.h.h.t.,.R =.,.h.~.C ^ >.1.4.y.t.>.^ ;.1.A <.;XE D k k k D >.h.=.>.R z.j E ^ >.<.,.,.<.>.",
"= = / Q r r : < n l L K K t [ z n B W W L N N L : l v P a.l L W < , r l r : t z t ` K.W L L ( ~ z K / K [ ` K./ n z l r l n N L ",
"9X9XAXCXbXbXuXvXbXCXVXsXVXgXAXyX)._._.K.C.C._.>X$X{.n._.uX>X$XK.4X,X5XfXfXyXyXdXyXVXAXNXbXNXBXNXbXyX5X,XuXyXAXNX5X<X,X$X$X<XqXiX",
"Q.h.Q.v.1.v.z.v.S !.k.i 8./ 8.I <.:.;.=.$.;.9.k.V.l.A ;.V.h.;.A ^ G ~ i.f.i.' a.i.c.k.k.k.k.h.;.%Xn.( ( s.<.J.0.k.k.p.9.p.k.l.v.",
"y.H ,.-.*.4.-.*.q #Xz.# U A ^ I H S O.+.-.-.-.%.+.:.s S -.+.+.H D j j ^ <.G b A C S s =.3.3.2.O.V.I m U k.I 9.C $.$.=.=.=.=.-.-.",
"j.:.Y.Y.j.Y.j.j.@.:.S 4 p U U ;.q.:.q.j.:.-.:.%.Z O.-.4.@.%.-.+.>.7 G b G.h H <.p =.=.3.3.2.3.+.h.s.U 8.9.^ 1.;.:.=.=.1.q.4.h.v.",
"1.C H H $.l.h.1.6 A p ; i m m I A s S $.H H $.H H A S A 6 6 6 * G @ 1 ; c.< a b m m p s s S O.s ( I : r i > i ; G b b A A b C H ",
"{ J / m r m a a 8.n.8.P J t t P a.] 8.n.s.s.n.0.] ( ] ] n.B.J.H.s.L / { uX`.`.'.'.N.H.J.B.J.W.n.tX,Xb.m.m...m.{ m.a.a.a.a.a.a.d.",
"H.H.<X{.8.] ( 0.s.H.B.s.a.b.H.<XJ.0.s.C.B.s.s.8.s.8.0.] B.0.s.B.Z.8.s.B.nX2X<X<X`.'.tX0X[.%X[.J.$XXXm.K.oX$XsXsXa.a.a.a.d.d.M.M.",
"A A V.l.$.$.$.3.q +.+.+.=.$.q.:XT.=.-.h.h.4.5.:.3.4.l.-.E.-.:.5.#.w w w 3.S S H s 9 E.v.C Z Z Z 9 k e 9 j 9 1.z.D D H H R =.>.>.",
"p.^ k.q.=.3.%.@.5.j.U.Y.T.4.h.:Xj.Z Z :.5.5.j.j.*.-.y.@.:X:.3.j.5./.5.6.j.6.3.j.4.=.hX^.Z -.6.u.u.z.,.,.&.k y.x.>.,.,.>.>.t.t.t.",
"} P b.{ m m u i p p 8 A U I 8.%Xs.v < G ^ ^ <.' ^ G G > L.b 8 8 d O.S S $.U I U U u #Xc.O 8 8 h 2 h 1 b b h ' i.~ ) ) W W ` ' ) ",
"% t `.`.} / } C.s./ i i m m 8.2X%X<.B ( ' ( ' ( i./ ( m nX(.H.J.;.w.0.0.0.0.( ] 8.J tX$Xi L v < n B l n V - V V , r r : , l z t ",
"eX7X7XwXsXsXdXVXyXCXsX' _ G.Q.;XE.V.k.k.k.k.k.V.k.W.0.0.;.Z.k.W.J.J.(.B.tX2X{.B.C.(.(.9XH.{.B.n.`.tXdXNXqX9XNXnXqX2X9XuXbXtX$X'.",
"R C b G / / ` { Q ).f.B ~ ^ R H Z d O.%.-.%.%.%.3.S # d $.w.%.:.;.;.;.m 0.I m < p i 5 I 5 I I I C.J.I ] ( ] ( m Y I Y ( ;.U I I ",
">.H D G I L B L N _.{ ^ c.c.G.y.2.2.5.U.Y.U.U.U.lXe.w @.U.U.@.2.6.q.j.S 5.@.+.S +.+.+.4.+.3.-.+.$.T.s H C $.Z $.=.$.$.@.Z q Z -.",
"<._ ^ ^ ^ ^ ~ I < @X_ G i.9.Q.=.-.@.@.@.@.@.@.2.6.O.w #.6.6.@.j.Z +.$.q :.H +.S -.+.+.-.+.=.-.S s W.U 1.=.:.S h.:.:.:.:.+.Z @.4.",
"G G G A A A A C + #Xp.U U m ;.& m i i p i u i p i m m p ( U I Y i a m : / m m < J r i r r a / I Q C.a n J L : r r r a m m n n m ",
"B.Z.B.0.=.H H S l.ZXkX[.!.J.2X2X{.{.*X9X9X<X$X$X7X9X2X(.0X2X].s.J.J.].B.9X<X%X{.J.H.2X2X2X{.%XH.'.<XH.b.H.M.`.>X>X$X$X<X2X#X(.J.",
"C.].].c.=.+.+.+.O.5.$.C A i 8.0XI U <.p.p.1.<.;.H A H A v.1.>.H D H H 9 :.U =.=.9 C v.V.v.U $.5 C ( 9.m ;.b !.~.Q.V.v.V.V.z.1.1.",
"J 8.k.9.U +.2.5.5.%.-.q.k.a m zXD C D H H F F H 1.=.1.,.R.F +.4.3.5.5.q @.q Z F Z q y.-.:.Z j.5.l.=.1.C v.H ~.+.=.+.+.=.-.-.3.j.",
"8.] 0.9.H +.5.5.2.U.%.9.0.A n.nXG ^ >.1.t.1.,.=.H x.1.&.h.*.q ,.-.+.*.4.=.*.F q q 0 :.*.F y.,.y.=.p.p.;.v.H 4.-.4.>.+.*.4.y.3.*.",
"/ m I U 6 # q +.e s e s ^ a s.tX< i m I ^ ;.;.^ D ^ C D E.v.C C 9 C 8 b ; 4 4 D 5 ; U 9 2 9 9 A b m > @ A ; G b A C A G ^ ;.=.=.",
"/ I B.3XE.$.$.4.v.~.q.l.[.Z.#XnXb.b.m.N.S.N.N.M.M.H.n.J.nXnX%X@Xa.N.~ a.$X<Xn._.$X$XsX9X_.@XXX$XK.oXS.S.5X).`.A.[  .a.{ / W / ' ",
"I ( !.kX-Xk.1.;.v.!.;.^ p.U ^ a.} } / Q P J L J J ( ( ( s.s.8.s./ ' N L NX$XL B a.M.$X$XH.F.M.a.oX5XoX,X9XoXXXS.H.)._.H.a.` '  .",
"b 8 b b 8 i v - I s.v 8 ~ m A G =.$.$.$.$.$.$.$.Z %.@.#.w w w #.&.<.p.7 cXD 2 4 8 9 b D b b b @ ^ <.8 ; ; ; j D b D D C 9 9 9 j ",
">.;.>.^ ~ a.M./ N f.~ m _ ^ >.;.h.q.q.q.q.4.4.3.j.5.5.e.U.U.U.5.v.t.,.# jXG j D >.^ j D b D =.7 ^ p.b G b M E <.G G H H S F F F ",
"j 7 b M V L Q z , a.W < h 7 7 4 i u u u u u 5 3 A 6 6 d S %.-.S ~ v $ o _.W - , N B : r , : B $ , K = z r l , r W W ~ B n v i v ",
"Q.t.<.<.B N ` ..D.bX4XF.I.p.g.i.] } 0.n.N.C.C.C.B.8.;.U p S :.<.s._.K.<XmXXXP a.L [ Q ..[ L  .x oX+X[ m.o.S.m.S.'.`.`.).H.M.N.H.",
"kX8XMX{.{.J.].&XK.F.K.f.A.F.qXd.$X).'.`.oXoXoX,XoXXX<XvXf.B.].8X8X;XkXxX;X3XeXwX@XuXnX].9X0XnXbX6X,XOXoXyXAXbX'.$X$X>X>X}.}.>X3X",
"i p s.5 m i B m B N B W  .` P.: l : - : , : x N , v  .2X~ A j H =.H =.=.A A U U A s.B.i I I ( J ` Q W n L N.f.u a a s f f f 3 f ",
"A I W.i _ ( G.B.a.a./  .g.) 4X' >.^ R H C b b E ^ ^ 1.kX,.6.&.x.h.1.t.h.h.1.h.c._ J.!.m I G I 8 G b G j 4 p.G.6 -.:.3.7.%.7.7.7.",
"* p W.* b & B 8 B ~ v W B - &Xf.b D H G b i M G >.G D :XC @.F x.S b C b ;.b b A A p.s.; i i m - ; O 8 ; + <.G.4 s s d d d w w w ",
"5 ^ 8X;.^ ; ; + + o o h V + g.N o $ r a t t n K P t L <X( ( b U k.<.p.;.!.^ H U b ;.' @ a m ~ B Q x Q Q z S.oXn n J J a a u y y ",
"jXMXSXMXmXjXmXMXjXp.r.F.=XF.*Xf.B.(.$X$X$X`.oX`.).N.$XBX9X>X{.].=XQ.[.W.BX=X!.#X#X;X3XB.*X*XwXuXNX6XyXfX5XNXVX`.1X5XtXtXtXtXpXpX",
"^ G G b 8 ;.>.G.cXA G M E b G b G U U A A A p 5 > X p A s 9 S 5 b ; ; @ J.A b ~ M b M - G i G ( ~ v V B V m m > ; 5 p A A Y Y U ",
"^ b 8 ^ 9 ;.; C  X; p.<.<.E M <.-.3.:.$.$.:.;.U s 4 1.:.j.:.T.H p.I A ; @XG B ^ <.^ ^ B i.M G <.G b b E ^ A H ;.H U =.=.$.S S C ",
">.<.G._ b <.>.E !.b D D p.>.>.=.+.%.:.4.:.:.;.=.U ;.:.l.4.$.j.1.G B ^ < !._ ' ~ v < M G ~ B < p.<.b <.p.h.p.H h.H U =.=.=.$.H H ",
"h @ b b v G h ; G.A b j G 8 G 9 4 6 9 6 5 5 5 i > & @ s A p p + .   + o ' O o . @ + O + O O + ~ ^ > 8 - & < @ 8 8 8 8 5 5 > > > ",
"P._ g.i._ _ ^ <.vX8X#X[.-XG.xX#X3X2X<X$X`.`.$X,X).N...a./ P N.H.H.i.P.XXMXP.F.F./ ~ r.~ _ ' r.=X .Q  .[ { S.../ Q ! ! P Q [ { ..",
"=X|.7X@X' ' <.F.<.c._ <.p.=.jXW.B.c.a.] / / / } { b.'.$Xn.Q a.a.XXf.P.P.qXP.P.L.P.=XvX=X7X*X*XwX<X&XqX9X5XbX9Xa.M.m.A.H.K.`.$X$X",
"V ) L. .< v 8 8 M <.G G ^ A 8XV.,.6.,.=.H D A A G b b p.p.U =.b B l N < N n W v < ~ L.E _ G M A >.R =.&.H x.R.7 D D G H R R R R ",
"A.A.XX| B i.' B ~ <._ G G i E.9.6.u.u.y.y.1.,.<.G.9.H p.>.C ,.<.B W ` W L ` i.N - ' =XM <._ r.<.,.>.,.y.,.R..X0 >.,.y.h.x.x.x.x.",
"` N ) g $ < - O ~ B ( m m i 0.9.E ^ _ _ / ~ W W N K { _.f.n N r V l ! W l B ) V 1 r.7XM r._ g.<.p.<.i.c.~ _ c.o ~ ~ / ' ' ' |  .",
"= , d.A.` N : r < O m > a m 8.s.G E G B V v l l K t t S.oXA.m./ / l N ` V B ' _ _ =XCXr.f.' <.M ( m n ' B f.sXa.i.{ ` W N V l l ",
"L.F.9X4XqX&XqX&XqX<X7XuXvXqX7XqX8X8XkXjXkX8X-X#XJ.W.J.0X%X0X>XuX&X*X*X7XmX@X;X;XjX;XvXvXzXjXwXCXvX@X*X=X7X=XwX7XqX7X=X@X@X_.P.F.",
"@ + B B / M ~ h =Xc.' ~ I B B ( ;.;.;.:.:.:.:.:.H U b U i a - y i n m I s.8 9 5 b 5 8 > i n m G.f.B B v B < m 8 r v V B B v : O ",
"0 e F F >.&.1.R .Xx.t.y.z.h.h.v.l.k.k.k.h.h.q.q.l.V.0.k.( ( J m ] / v i <.i U U ^ G A > b m i B.c.B G B ^ m ( B ~ L B B B ~ ~ ~ ",
"F 9 C C C F >.R x.,.>.t.z.h.h.z.;.<.9.h.q.q.1.:.$.;.;.^ Y ( I m ~ B - & U 8 ^ U ^ ;.^ b I I r a.f.B ~ ~ i.~ a.' ( ~ B n B L / ' ",
"l , l n : , r : H.{ N n r : , n 5 5 p C S $.=.=.Z S U A Y I m i v B m G B.U ^ p ; 5 b ; 8 i > ( ~ - - $ < + < - < v B B B v < - ",
"<XqXbXCXyXqX,XoXVXdXyXyX5XoXoX4X2X-X[.[.[.:XhXkXkXhXxXxXBXzXzX0XqXzXwXwXCXjXjX;X-X#X8X%XJ.].@XuXMX9XwX7XwX*XvXvXmXMXCXCXCXmXmXvX",
"p.G.=XjXG.P.c.c.p.g.G.!.Q.c.F.@Xk.s.9.1.1.1.q.h.q.U 0.k.[.8.8.( / ' G i <.b >.^ c.9.#XJ.m B ' 8.' n / ~ ' L F._.~ ~ G B v M G ^ ",
"b >.p.Q.G >.=.t.p.1.t.t.=.R h.#Xb A ;.9.h.h.q.1.h.S 1.k.W.A i 5 < B m i ;.b ^ D A 8 Q.J.> < B i / v / L / B F.&Xv m G ~ G G G ~ ",
"<.1.<. X7 z.v.x.x.z.Q.h.z.H E.-X5 p U 0.k.k.q.:.1.:.v.U [.G A A ~ i ~ m p.<.^ A <.p !.p.> ~ I / A.` ~ ' ' : F.L.~ ^ ^ ~ ~ ^ _ ^ ",
"8 8 A @Xb <.^ ^ ^ ^ <.G <.b G.;X> 5 m I =.;.=.$.S 9 A 4 v.C m i > & i - ; ; 8 b @ . p.~ @ n i n n $ o O : O f.J.i M M v b b b b ",
"d...A.NXK.).m.S.X.S.X.[ ..Q XX9Xn a m A H U =.:.:.H =.U hX}.;X[.J.a.Y 8.9.p.^ U ;.G -X!._ s.8.a.H. . .a.L.P.mXvX' i.g.p.p.p.p.<.",
"K.H.H.9XA.K.A.H.5XVX4XoX$XM.$X4X].].W.E.E.W.[.:X:XE.~.v.hX}.}.J.9X*XB.0X3X;XG.l.!.V.;X].s.J.B.n.&Xd.d. .F.F.<X@X;X7X8X8X8XeX8XrX",
",.t.>.>.D ,.,.=.=.:X>.=.=.7 k j ( ( ( I A A S H 1.$.:.+.;.U U p > L b Z.I 5 p ^ A 8 b i 8 m r - _.N l $ r v / ~ ~ ' <.^ _ <.>.^ ",
"H y.,.&.&.x.h.>.F lX*.1.y.R >.R ( ] ] ( U A U U C s =.:.=.1.V.s.' a.~ J.9.> H 1.;.;.^ ( <.' B > _.N / / d. .i.' ~ ^ ^ ^ ^ >.>.^ ",
"v ~ ~ G <.i.' ~ ~ vXG ' i.^ i.' / ] 8.8.( U ;.1.T.l.T.l.=.9.V.0.s.' i i.s.@ b 5 8 b 8 8 b i - O H.t Q { A.` B B ~ ^ ^ G G ^ ^ ^ ",
"r r r l / B v n ` mXn N L n W L : > i i 5 5 p A S q s 9 X 4 A 5 i n v p.c.. p 8 8 ^ b b G I ( { 5Xt l , n : - B v M b 8 8 b D C "
};
