/* XPM */
static char *_3cc5c73f9044b889c884c880dbd463fzroIYBHNtL7HmxxA[] = {
/* columns rows colors chars-per-pixel */
"64 64 243 2 ",
"   c #0B0100",
".  c #080302",
"X  c #140500",
"o  c #150A01",
"O  c #1A0C01",
"+  c #140B06",
"@  c #1E1105",
"#  c #1C130C",
"$  c #121004",
"%  c #210E00",
"&  c #231303",
"*  c #25150B",
"=  c #251A0C",
"-  c #2C1C0C",
";  c #2A1804",
":  c #241A11",
">  c #2D1E12",
",  c #241F19",
"<  c #2E2214",
"1  c #2D231A",
"2  c #2E281C",
"3  c #332414",
"4  c #32251B",
"5  c #352A1C",
"6  c #3B2C1C",
"7  c #382916",
"8  c #32200A",
"9  c #342B22",
"0  c #3B2E24",
"q  c #3C3124",
"w  c #3C332A",
"e  c #333329",
"r  c #3C3932",
"t  c #492E15",
"y  c #603F1E",
"u  c #433424",
"i  c #4C3B26",
"p  c #43352A",
"a  c #44392C",
"s  c #4B3C2C",
"d  c #473625",
"f  c #553C24",
"g  c #573B27",
"h  c #453B32",
"j  c #4A3C33",
"k  c #433E38",
"l  c #513F34",
"z  c #4E412E",
"x  c #53422C",
"c  c #5B432C",
"v  c #4D4234",
"b  c #4E443B",
"n  c #534434",
"m  c #564937",
"M  c #5C4A34",
"N  c #53463A",
"B  c #554A3C",
"V  c #5B4C3C",
"C  c #594737",
"Z  c #5D503C",
"A  c #67472A",
"S  c #624B35",
"D  c #624E3B",
"F  c #6B4D36",
"G  c #64533D",
"H  c #6A543D",
"J  c #6A563A",
"K  c #775839",
"L  c #76522D",
"P  c #554C42",
"I  c #5B4E42",
"U  c #564B45",
"Y  c #5D5244",
"T  c #5D534A",
"R  c #575045",
"E  c #58524D",
"W  c #635444",
"Q  c #6B5A45",
"!  c #63564A",
"~  c #655A4C",
"^  c #6B5C4C",
"/  c #675747",
"(  c #735D45",
")  c #765B46",
"_  c #645B52",
"`  c #6A5D53",
"'  c #665B55",
"]  c #725F53",
"[  c #604E40",
"{  c #6C604D",
"}  c #74634C",
"|  c #7B644C",
" . c #7B694E",
".. c #796245",
"X. c #6D6254",
"o. c #6D645A",
"O. c #686357",
"+. c #726454",
"@. c #7A6653",
"#. c #7B6A54",
"$. c #72665B",
"%. c #746A5C",
"&. c #7B6C5C",
"*. c #776856",
"=. c #7E715C",
"-. c #756C63",
";. c #7A6E63",
":. c #776C67",
">. c #7C7164",
",. c #7D746A",
"<. c #7C7668",
"1. c #7E7571",
"2. c #845E38",
"3. c #81603F",
"4. c #84674B",
"5. c #816753",
"6. c #826D54",
"7. c #826E5B",
"8. c #8D6C56",
"9. c #897155",
"0. c #83725C",
"q. c #8B755C",
"w. c #87755A",
"e. c #917A5E",
"r. c #957759",
"t. c #8A704F",
"y. c #816E61",
"u. c #837464",
"i. c #897663",
"p. c #867966",
"a. c #8C7B64",
"s. c #82766B",
"d. c #84796C",
"f. c #8B7C6C",
"g. c #937D64",
"h. c #917E6B",
"j. c #9C7E63",
"k. c #857C72",
"l. c #8A7E72",
"z. c #857C78",
"x. c #927F70",
"c. c #94805F",
"v. c #A3805C",
"b. c #8D816D",
"n. c #958165",
"m. c #94826B",
"M. c #9A846C",
"N. c #9D886D",
"B. c #9C8364",
"V. c #8D8274",
"C. c #8C837A",
"Z. c #898379",
"A. c #938474",
"S. c #9B8672",
"D. c #958976",
"F. c #9C8A74",
"G. c #92867B",
"H. c #95897B",
"J. c #9B8C7C",
"K. c #98867C",
"L. c #9D917C",
"P. c #A38A6C",
"I. c #A98665",
"U. c #A28D75",
"Y. c #A18E7B",
"T. c #AA8E76",
"R. c #AA9375",
"E. c #A4937C",
"W. c #AA947B",
"Q. c #AD997C",
"!. c #A69174",
"~. c #B39C7D",
"^. c #B19071",
"/. c #B2906F",
"(. c #B4A07F",
"). c #8D8581",
"_. c #8F8983",
"`. c #918680",
"'. c #958C82",
"]. c #9B8E83",
"[. c #968D89",
"{. c #9C9284",
"}. c #9C938A",
"|. c #9A968C",
" X c #9E9A93",
".X c #A39484",
"XX c #AA9783",
"oX c #A59985",
"OX c #AC9B85",
"+X c #A3968A",
"@X c #A5998B",
"#X c #AB9C8C",
"$X c #B29D83",
"%X c #B19F8A",
"&X c #B09781",
"*X c #A59B93",
"=X c #AA9E92",
"-X c #A59D99",
";X c #AEA18D",
":X c #B6A183",
">X c #B9A385",
",X c #B4A28C",
"<X c #BBA58C",
"1X c #BDA98C",
"2X c #ADA193",
"3X c #ADA39B",
"4X c #A9A498",
"5X c #B2A493",
"6X c #BDAB93",
"7X c #B2A69B",
"8X c #B4A99C",
"9X c #BAAC9C",
"0X c #B7A897",
"qX c #BFB19D",
"wX c #AFA8A1",
"eX c #B5ABA2",
"rX c #BAACA2",
"tX c #B5ACA8",
"yX c #BDB2A4",
"uX c #BDB3AA",
"iX c #BEB8A8",
"pX c #C2AB8C",
"aX c #C8AE8D",
"sX c #C1AC93",
"dX c #C6AF9B",
"fX c #C3B29B",
"gX c #C9B79C",
"hX c #CEB99C",
"jX c #C7B394",
"kX c #D3BE9E",
"lX c #C2B4A3",
"zX c #CBB9A2",
"xX c #C2B6AB",
"cX c #C5B9AA",
"vX c #CCBBAA",
"bX c #C5BCB2",
"nX c #CDB9A6",
"mX c #D5C5AD",
"MX c #CCC1B4",
"NX c #CAC1B8",
"BX c #D0C4B3",
"VX c #E0CFB5",
"CX c #EDDBC3",
/* pixels */
"l.C.xX{.G.lXu.u..XD.A.u.A.rXl.h 1 T 3 O & o # h H.$Xr.L y t $.%.! V 7.&.+.z p < $ e $ r w o.G.f.l.}.Z.s.$.%.k.v 4 P $.o.~ O.9 o ",
"-.'.xX2X7X#Xu.9X#XlXA.&.@X=Xl.a o . ! s d C %.$.&.~.K 2.K q.X.~ ].W 6 7 @.Q o = Z.}.P Z.P T G.eX=X'.k.$.>.,.>.%.> @ 2 : 2 2 = 5 ",
"*XbX+X>.Y < ^ yX#X5XJ.A.H.+X%.q q N ^ a.D S.0.G T.K A I./.R.+.o $.i.} 5.#.Y.x V ~ >.d.-.9 P H.=X-.k.k.Z.H.G.H._ P 9 o o.}.C.O.-.",
"k.l.-._ a X d.@X#XA.u.V.].J.$.Y -.H./ @.Q 5.S F 8.4.2.v./.) 7 X ; F.F.S g 5.5.; 3 l @ 2 9 q d.v ~ %.,.C.s.d.C.O.,.-.4 *XeX*X,.-.",
"k 9 T ,.*Xh %.@X.X].V.$.N < >.xX+X'.V } g.e.4.A L I.j.r.q.t X 7 &.a.6.5.8.f 8.H 5.@.> O -.T o.-.%.%.f.>.-.T >.X.$.G.,.k._ ' o.$.",
": O.{.'.C.B _ @Xs.n B 5 q H.yX>.-.b m V Q.g.B.y K r.R.T.c 3 ^ .X( J 6.F F 8.g t ) g ] O B P R <.,.d.d.Z.O.-.k.%.h d.G.;.:.k._ T ",
"Z.'.-.k._ B 4 4 w X.H.+X2X7X! a v V.V.5 #.g.4.r...g.h.6 6 A.;.7.H ) 5.g.j.3.t g F S @.6 a O.w -.H.~ -.O.o.o.k.l.>.'.,.o.}.}.-.' ",
",.-.h _ :.P : o.l.'.X.H.G.` d.$.X.V.X.B s W g.>X6.#.m O $.B y.F.M.8.q.j.) A F H ) Q W V 5 N T >.<.-._ Z.'.,.,.s.>.-.s.` s.o.! T ",
"_.:.k.O.' :.}.-Xo.d.$.X.%.>.l.f.0Xu.>.V.q W h.E.i.G   # o.;.i.@.H | ) U.T.q.S.g.m.0./ %.N T >.$.C.|.l.C.:.>.V.d.` l.%.N ` $.:.B ",
"R k w -.3X_.O.:.,.$.=XV.>.$..X.XE.W.0XJ.q m &.u.n O q q %.+.5.) 8.Q 5.) M.M.OXS.u.+.H.2X>.a ,.P C.*XC.}.k.%.d.s.~ $.X.v s.~ $.N ",
"2 # P [.k.-.-.O.:._ d.~ +.V.J.0.w.W.OXD.* O n u i u.A.B u.i.F 8.A e.5.7.h.*.>.yXb.H.V.;.d.j ' b *X`.1.'.l.,.$.G.$.o v T ` ~ d.T ",
"w -.,._ 1.:.-.O.G.>.%.>.f.9X^ } P.W.S.u.< a A.J.F.f.m.^ .X| g f c M.D ^ J.u.>.f.u.%.P G.l.a j P -.l.k.'.d.;.;.l.>.O -.>.d.-.B P ",
"C.C.C.o.k.O.C.-.H.s.@X#X&.^ #X9X6.| u W o.C.8X5X^ a.a.} W.<XQ ) 7.( *.K.{.C.G.O.s.s.&..XA.* 0 I >.l.%.+.I B W ~ P a ,.-.,.O.-.%.",
"-.l._ T T k.:.d.*XbXG.&.+.oXfXw.M 8 $.k.wX_ Z.#XG U.,X} #.5X&.V #.0.=..X{.-.o.,.H.J.2Xu.s - p q s 6 < = O X @ @ O 5 _ T R k 1 , ",
"T ,.o.P -.-.$.C.3X'.Y $.#X0XD 7 V &.-X4Xz._  XH.{ #.$Xh./ &.].+X{ #..XX.-.l.Z.+X@XA./ 3 6 9XlXK.;XOXu.i.f.u.K.P 4 a 2 + .   . + ",
"C.3X%.-.Z.-.l.d.s.s.Y p.J.d - V +XeX*XwX Xz.bXG.D.^ D 3 Y #XeX@XV.J.H.%.l._ k.G.B 7 X - OX0X#X.XgXgXfXzX6XE.fXf.>.].d.P h 9 # + ",
"3Xl.-.o.,.k.k.k.f.D.X.p.< Y %.$.xX7Xd.eX+X'.eXA..Xu.B   $.J.%.%.p.{..X$.4 a a 4 & ; M F.sX%Xn.m.<Xq.N.U.sX<X%XfXOXOX#XJ.A.=XC.9 ",
"H.$._ Z.[.o.<.>.f.J.Q 3 = s.u.;.lX].K.0X.X5Xy./ 9XV.! X.~ .Xp.Y p.>.v q V.G.] V *.F.i.E.gX6X<XXX$XN.<X:Xg.pX1XQ.N.<X%X#Xf.5X.X^ ",
"! b %.%.>.,.-.V.oXA.6 X D a.i.i.p.J.A.i.U.M.H } fXA.^ #XV b.#Xu.A.Y B =X` 0 p n A.%X( F.%XW.fX1X<XhX:XhX~.:X>X9.6.m.m.,XF.} #XA.",
"^ m Y q b -.$.$.^ s % S M.6.| F.} &.F.0.i.n.6.g.n.Y.i.A.D.Z f.#XA.V X.^ q Y s.Y #Xp.0.fXN.M.%XQ.pX:Xc.jXjX:X>X!...J q.i.i.} J.} ",
"X.{ ^ O.-.,.%.p - 3 i.XXW.T.M.M.w.,Xw.<X1Xe.9.U.<XsXf.z p.+.^ u.i m u.b.! l.].< &.+.OXvXfX$Xg.<X(.B.P.kX:X~.~.P.w.n.n.6.Q m.E.#.",
"3 Y >.Z.s.a # 4 p &.A.S.S.g.n.} u.oX9XCX>X$XW.$X<X%X%X^ W p.n s ,XE.#XH.u.G.].= = X.vXmXgX1XjX~.1X~.~.W.W.R.T.N.| g.W.S.w.a.A.*.",
"o   5 o.o.w 1 j l.A.#X.Xi.%Xa.W G.BXcXfXW.,XkX<X&X9XnX! j B > W A.a.f.@XA.s.C.2 o @XlX5XgX$X<XR.:X~.~.| <XsXU.T.#.S.S.Y.M.0.5X*.",
"{ Z Z u a a 4 $.xX;.A.A.J.%.%.=X{.-._ f.Y.OXXX7.i.0Xs.5 b C.h v F.a.&.5XG.V.l.k.,.>.p.mXVXsX<X$X<XjX~.e.<X1X&Xq.S.F.S.Y./ A.qXb.",
"6X,XJ.0XoXA.&.f.u.&.f.s W f.*X3X:.-.'.].+X5Xi.] y.y.q P ].*X'.5 ^ G Q A.f.s.].C.8X&.9XfXzXhXsXjXhXjX1Xw.sXsXM.U.OXU.XX%X7.m.OX#.",
"dX$X$XgX%X| | #.} 0.0.^ ^ H.G.:.C.3X*XG.8X#X&.f.&.q v ,.+X}.8XY x Q 0.V.{.+X3Xo.yX.Xm oX,XgX6XhXkXpXR.Q.~.>XN.R.n.U.XXOXi.F.f.Z ",
"^.j.P.K ..B.J ..9...6.S.&.A.l.`.[.|.s.+X2XK.f.m < B %.{.*X4X8XD.V G m.@Xf.d.k.>.8XcXs +.fXzXzX1XhXjXR.kX~.pXQ.R.W.!.N.W. .a.a.x ",
"I.^.I.) ~.aXt.t A ..q.6..X].G.'.l.k.l.8Xp.s u u ! Y >.yX7XiX{.@X+.#..X#X&.s.d.H.7XyX^ 6 5XzXzXmX>X!.B.hXpX>XP.Q.n.~.Q.F.n.} D.{ ",
"r.3.8.pXP.j.r.; J n.q.h.f.f.u.>.d.}.yXV.! u.d.a -.2XeX X'.{.2X2X*.a.J.D.;.f.@X7XW H.#Xm C fXzX<X6X1XjXQ.~.1XQ.B.R.gXW.F.F.b.D.^ ",
"B.r.P.P.K e.f c ( ( g.h.J.u.X.H.#XH.H..XyXcXm k.-X|.-X[.3X[.}.7Xf.&.u.u.&.H.V.+.X.cX9X#X} +.F.F.u.#.M.g.q.e.N.W.q.W.S.E.f.&.v * ",
"P.9.6.x i u % u.^ h.OXK.p.%.{.{.Y %..X#XA.5 > 3XC.-X[.-X3XC.[.=X^ ^ J.p.p.#Xs.+.9X#XoXlX{.u 6 ^ d s C s d S | | 6.7.V 3 d = X # ",
"i 7 ; O V s.f.p.&.p.J.%.p.V.>.B V 2X%.5 @   = [.-.tX-X3X).1.z.+XP v &.X.l.V p l.].$.V A.J.3 = ^ s * 7 x.S.d & % 6 n - X X * h ;.",
"= 5 P Y G.7X8Xf.p p.+XA.p.! u = ~ Y &.>.j v v Y '.tX[.bXz.).}.8XT # ,.P s 0 s u P ` P P ^ u.f.cXMX$.3 #X#XoX&.7 u p 3 = d u.9Xi.",
"5 w 1 T wX*XeX'.d p ^ n 3 - 3 ! ` {.H.H.l.2X2XN |.[.eXuX'._. XiX%.9 9 k.5X.XG.#X=XuX+X3XG.7X@X2XlX2X^ V lX#XA.#Xp.3 u u.f.m.E.M.",
",.>.k ' eX*X3Xs.C - p q s m f.G.'.xX.X>.+XG..X! k.eX}.C.C.-X3X}._ 2 v yX#X>.$.l.G.7X7X2XG.@X=X{.>.%.J.m A.+.+.W d W .X#XJ.#.S.E.",
"C.O.-.C.wXuX=XP B ` H..XJ.$..XH.'.3X9XV.l.d.MX$.-.3X>.*XC.'.}.|.o.h ` 3X7X@XA.H.H.k.rX=XV.yX#XyX@XJ.J.z W f.^ u 0.#Xu.p.a.6.U.g.",
",.H.|.-.1.C.-.w ;.2X].f.f.f.+X'.}.8X9Xf.l.=X9XA.` 3Xk.7X*X|.+XuX}.R ,.MX#X.X#X#XH.8XMX{.H.=XA..X#X0XJ.i V D G ,XvXA.u.F.N.i.N.n.",
"T *Xk.k T ' U 1 l.=XG.{.A.d.rX7X*XyX@X2XyX@XJ..X$.:.s.3X].3X*X=X'.R C.xX.X].#X9Xs.8XH.}.G.cXV.H.A.&.oXu % i ,XE.XX.XS.i.F. .B.e.",
"-.>.P w T O.' : ~ o.>.{.'.Z.eXk.l.7X2X2X2X#XK.2X$.! +X.XG.8XG.+X[.w '.MX9XA.u.oXH.J.H.MX{.5X#XA.p.V.A.i i F.sX6.| n.q.q.w.M.R.9.",
"%.~ v 9 b _ b o ,.s.+X2XH.G.].].C.yX2X0XV.{.f..X;.! =XV.k.d.].3X3XY =XbX@X2XH.A.H.{.xXbX{.lX#X=.H..Xi.n Y.<XW.U.( M.| M.$X!.e.4.",
"a Y ].$.a 0 1 w ' 3X{.f.[.%.k.'.'.7X.X0XA.u.p.9XV.0 ` s.=X.X=X3XeXh }.7X+.2X.X.XG.#XJ.2XH.#XoXu./ &.A.n S.XXE.W.6.q.H W.N.6.B.P.",
"5 m ;.~ 2 9 :.T b 3X%._ G.-.-.'.V.2X@X#X;Xp.@XlX#X> ! uXrX+XG.=Xh # *X9Xp.A.&.#X.X{.+X2XH.2X#Xp.A.u.*.u #.q.q.M.n.M.n.i.w.n.c S ",
".X&.! l.5 w C.-.a $.d.X.C.V.*X3X>.@X@X5X9Xf.J.5X5Xq 4 +X' -.$.P + q 7X+X@XoX.XlX.XA.@X+XoX#XJ.K.H.A.&.- i F.%X%Xg.M.6.M Q M #.n.",
"J.p.p.yXY a 2X'.a s.s.V.l.{.|.*X+X=X@X{.D.p.u.7X5Xa   T }.N ].NXO.` 7X7X9X0Xf.#X.X5XrXH.oX#X.XA.$.J.+.& i w.q.F.M.#.H Q a.( #.q.",
"a.#.A.#Xv V yX2XB f.V.%.V.V.%.{.H.@X+XH.F.p.A.=X#XP X 9 : ,.bX*Xl.H.+XV.0XA.i.F.u.@XoXA..X#X.Xp.l.>.m   / M.6.6.M.i ; i Q x i.#.",
"F.a.&.J.u Y =X>.v Y @X2X{.J.%.J.p.A.xXJ.m.oXV.@X@X^ 1 # -.bX_.|.`.:.l.yXJ.p.&.F.J.D.V.@XK.7X5Xp.X.{.p X 6 c } ( i & o O i A.*.&.",
"6.6.a.0.7 ! {.H.s.a @X5XH.A.%.=XG.J.MX.Xb.0Xl.l.oX>.1 z.uX3X_._.*X>.a p..XXXF.p.f.#X.XH.+X#X&.*.>.X.d D M i.U.i.,X,X*.n A.u.V i.",
"6.i.i.i.d *.f.9X.Xq ~ l.H.&.>.H.@XV.5Xf.b.qXJ.&.@X#Xk -X'.-X'.`.'.*Xv - ^ A.oXJ.oX0XMXoXoXJ.K.9Xl.= n p.*.m.0.#.OXf.=.6 s W +.A.",
"F.w.n.&.3 ` L.{.@X4 b o.,.>.=XA.=.&..X].A.p.f.p.L.oXa ].uX}.C.].@XyX].a 5 C H.{.#X9XoX&.&.K.5X>.a N o 5 ^ ^ W G n s u.3 = p.$.*.",
"n.F.M.f.* $.A.b.s.0 1 z.d.{.7XG.5X#XH.#XA.J.J.L..XJ.I $.=X.Xf.H.2X0X8X@Xj j p %.A.J.p.u.i.A.u.6 ~ Y Y s.>.^ d & u G f.V u u.%.%.",
"n.S.M.&.O ;.9XoX>.4 # _.l.2XV.;.p.p.>.G.d.J.@XJ.K.A.$.! 7Xk.G.d.5XbXrX+X;.;.H.^ X./ V V V V - 7 $.{.G.}.2XH.&.n & u W d q W b.{ ",
"#.i.XX} p ].5X.XL.b + O.l.{.X.&.u.! X.].d.#XJ.u.p..XY T 7XG.8X@X{.A.;.+X:.a rXH.o - 3 m m s n G.0X'.>.}.G.s.s.H.s = a - { Z ^ ~ ",
"6.U.OXf.s %.2XoXD.%.2 _ -.;.G.V.V.G.G.k.;..XJ.+.&.V o j `.*X=XyXf.>.G.eX'.: q a s / J.2X.X{.H.+X@XV.p.2X%.Z.d.V.J.p.` A.&.n ^ u.",
"6.OXF.f.p 4 { +.= ^ I Y V.! A.H.>.V.k.,.G.G.A.W ^ p.I * k.G.k.=X{.{.}.4Xk._ @ W +XoXL.H.A.J.=XG.V.l.{.{.-.H.].l.C.$.$.V.! 5 >.s.",
"E.F.E.0.u p Z x & v s.$.{.>.H.f.%.'.` _ N > u E.A.&.=XO ' *XZ.+XV.%.V.G.-.$.a Y G.f.J.K.oX{.H.l.A.@X5Xs.H.C.-.Z.H.k.l.H.X.* V u.",
"M.F.S.*.u ^ #XE.f.m $.$.>.>.f.! X.! 0 o   n A.OX0.&.0Xj : }.4X].G.V.H.{.d.` Y l..XD.5X#XJ.V.].{.oXJ.u.H.H.X.>.H.-._ d.l.+.^ ] #X",
"n.m.E.#.> ^ 5XfXOXb.T j G.%.n u.{.A.P @ ! p.0.a.0.Q ^ P @ ` G.V.%.f.V.>.].^ ! A.f.J.lXoXoXA.f..X#Xp.p.p.V.>.V.Z.T -.H.%.C *.*.m ",
"F.OXE.} O W BXE.=.@X` 1 Y n A.#X{.yX%.s p.*.0.#.#.} &.f.4 < p.@XV.^ ` 8X7X%.&.^ A..X5X#X.XA.f.oXA.&.V.u.f.V.l.X.u.].f..Xy.s 6 +.",
"F.F.m.0.> p.qX#.b.5X0 5 ~ A.V.J.5Xf.p.` &.m.M.6.n.=.^ 0X^   / {.p.&.d.].$.d.$.X.#X#XJ.E.5X.XlXlXf.A.f.f.f.u.&.&.J.X.H.A./ / 3 *.",
"OXi.i.0.6 ].f.} E.A.w >.&.p.u.V.V.%.$.X.f.*.} E. .J } +.C = V &.%.=X+X+X+X%.4 Y K.m.&.*.^ i.,XA.f.A.&.&.f.&.f.f.p.&.p.s p.u.s y.",
"S.XX;X*.W ;.*.F.m.3 G.;.>.f..XJ.#Xu.$.V n i } a. . .^ *.6 Y ! Y p.H.].d.^ * O W oX7.G G *.F.i.u.A.&.V A.i.u.a.i.n.a.Q +.A.&.[ 6 ",
"0.J.u.u.! ;.b.XXx / ;.s.vX9XrX=X{.p.$.&.d p.F. .w.} G f.C n f.a f.f.] ` 0 n ;./ &.G G #.#.} 0.A.A.A..X#Xi.E.i.n.6.i G &.&.x V s ",
"L.^ 0.&.` ! &.V Q &.G.].5X+.+.$.u.u.l.l.6 F.( 6.#.#.&.A.B +.lX^ I A..Xl I 9Xd - C V Q g.Q #.a.*.A.J.&.b.E.#.g.S f x M.OXF.s 6 V ",
"A.*..XV W n u n.OXJ.+XeXs.X.s.u.X.{.#XH.- ] #...#.| *.A.! ^ 9XX.u K.l.! 7Xu.  % n M c H %XfX} Q u.f.&.i.} M G f  .q.F.H n x s u "
};
