/* XPM */
static char *_4bc1c62fede4fd7c99396b72105031dz3IayYzTihPAdJNX[] = {
/* columns rows colors chars-per-pixel */
"32 32 177 2 ",
"   c #1F1E1D",
".  c #211615",
"X  c #2E1A12",
"o  c #201D1C",
"O  c #25221F",
"+  c #2E3432",
"@  c #3E3935",
"#  c #3D3C39",
"$  c #41352D",
"%  c #443C3B",
"&  c #4D433C",
"*  c #50433A",
"=  c #474545",
"-  c #4A4545",
";  c #4C4B4A",
":  c #504746",
">  c #534B44",
",  c #584C44",
"<  c #534C4A",
"1  c #53524F",
"2  c #5C524C",
"3  c #524E50",
"4  c #4E5A51",
"5  c #555453",
"6  c #5A5453",
"7  c #555855",
"8  c #5B5955",
"9  c #595758",
"0  c #565B5A",
"q  c #5D5C5C",
"w  c #654A44",
"e  c #615653",
"r  c #615953",
"t  c #685F57",
"y  c #625559",
"u  c #625D5B",
"i  c #6B5B5C",
"p  c #51605D",
"a  c #59625F",
"s  c #65615E",
"d  c #6A645E",
"f  c #5D5E61",
"g  c #625E60",
"h  c #6D5E63",
"j  c #715E61",
"k  c #4D6461",
"l  c #5E6162",
"z  c #576C65",
"x  c #646463",
"c  c #6A6564",
"v  c #676866",
"b  c #6D6966",
"n  c #676768",
"m  c #6B6668",
"M  c #636A6A",
"N  c #6C6C6B",
"B  c #736565",
"V  c #726B64",
"C  c #736D6C",
"Z  c #796B6E",
"A  c #67716E",
"S  c #6B706C",
"D  c #72716F",
"F  c #736F70",
"G  c #7B6B70",
"H  c #6C7372",
"J  c #677C77",
"K  c #6B7975",
"L  c #6A777B",
"P  c #6C7979",
"I  c #747373",
"U  c #7A7473",
"Y  c #767876",
"T  c #7B7976",
"R  c #7A7778",
"E  c #767E7D",
"W  c #7C7B7B",
"Q  c #8D6D67",
"!  c #83666A",
"~  c #8C6E6C",
"^  c #85706E",
"/  c #837273",
"(  c #807178",
")  c #8E7778",
"_  c #847D7B",
"`  c #8A7B7C",
"'  c #748177",
"]  c #7B817F",
"[  c #81827E",
"{  c #757F80",
"}  c #7C7F81",
"|  c #887D81",
" . c #778182",
".. c #7C8585",
"X. c #7D8889",
"o. c #6D948F",
"O. c #728C91",
"+. c #848484",
"@. c #8A8687",
"#. c #828986",
"$. c #8D8987",
"%. c #858789",
"&. c #848B8B",
"*. c #8C8C8B",
"=. c #958687",
"-. c #918B8B",
";. c #95918E",
":. c #8A8D90",
">. c #918F91",
",. c #819191",
"<. c #8D9494",
"1. c #889890",
"2. c #869D9E",
"3. c #959494",
"4. c #979996",
"5. c #999895",
"6. c #94969A",
"7. c #9A9599",
"8. c #959C9A",
"9. c #9C9C9C",
"0. c #A19695",
"q. c #AB9395",
"w. c #A39C9B",
"e. c #8AA39D",
"r. c #90A69D",
"t. c #9CA19F",
"y. c #979EA0",
"u. c #9F9FA0",
"i. c #99A3A3",
"p. c #A4A4A5",
"a. c #A9A6A4",
"s. c #A5A8A6",
"d. c #A5A7A9",
"f. c #ABA7AB",
"g. c #A4ABA9",
"h. c #ACACAC",
"j. c #B6A7AC",
"k. c #B2AAA9",
"l. c #BAAFAD",
"z. c #A7B0AF",
"x. c #AEB1AE",
"c. c #ADAFB1",
"v. c #ADB2B3",
"b. c #B4B3B3",
"n. c #B9B5B5",
"m. c #BABAB7",
"M. c #B6B7BA",
"N. c #B7B9B8",
"B. c #BCBCBC",
"V. c #BCBEBD",
"C. c #C2B2B5",
"Z. c #BAC2BF",
"A. c #C3C2BF",
"S. c #C4BEC0",
"D. c #B6C7C3",
"F. c #BEC7C7",
"G. c #C3C3C2",
"H. c #C8C6C5",
"J. c #C7C9C7",
"K. c #C7C9C9",
"L. c #CCCBCB",
"P. c #D4CBC6",
"I. c #D0CFCF",
"U. c #DBCDCA",
"Y. c #CAD0CE",
"T. c #C9CED0",
"R. c #D1CED0",
"E. c #CCD3D3",
"W. c #CDD9D6",
"Q. c #CDDBD8",
"!. c #D5D4D3",
"~. c #D8D6D7",
"^. c #D4D9D6",
"/. c #D6DAD8",
"(. c #DBDBDB",
"). c #E2DBDC",
"_. c #E5E4E3",
/* pixels */
"G.L &.q +.B.x _ - l z.q O.i.c u b w.q %.<.Y L.B M 0.8.+.-.: c 5 ",
"v I I q R %.@.T s u s m Y Y Y +.%._ I u s o.F D x R W +.W b s u ",
"%.X.q R h.# ;.v.J.C B.; ~ X B.&.b E.5 q Y m.s.P.W q O <.E.s.Y I ",
"I b.N I b.N v.8 x *.a.F.9.9 B.q 9.%.d.f 9.H y Q I N c.u f E. .W ",
"> t * x , c 8 < @ 2 & & $ & V d u u d . e % < > c r 2 < 8 b , 2 ",
"b E 3.:.8 c m b.V r y h.0 W < %.a.q 5 m 6 H q.l.8.5.d.W q q Y ^.",
"x - !.q N.9 x N g.-.e.=.s M l R 3.u h.8.v.W w N n x c.I 9 u u 8 ",
"6 &.; a.%.9 N.% g !.5.Y 9.L.x q *.<.p.` H.r.6.x J.R 8 N H.q ; ` ",
"*.+.h.x q b.q L.B.H.5 s.0.5.u.t.I q @.N C T *.9.n % %.*.3.p.y c ",
"n.v - x *.J.9.+ 6 7 k u p k.9.p.8 N @.q a.' / c %.I -.5 h.c $.9.",
"5.>.%.n 8.^.|   c W W.t.U 9 3.3.s.*.$.f 9.q $.&._ x.% ] q (.g.C.",
"Z.#.N.q ~.~.s _.Z a.` x R.B._.B.n.h I M.7.l U./ n L.m.q ).!.3.+.",
"I W D.9 A b.x 6 i.Q.! *.+.7 9 - b 3 U 3 ( i l &.+.- G.1 Z z j Y.",
"K f.L.9 q J 9 %.3.b.5 E.9.< 1.j.0 (.a H H c H u p.S.3.*.h.b.y ; ",
"N q x q 8 8 N N N x m 6 c x V 8 9 ! x m x R ; m q u 5 W m x m x ",
"q 6 f n q T.H y.B.E ..I Y.2.) ^ D G.} w.g.,.^.E F { 5 N 9.K x 9.",
"G.L &.q +.B.v _ = f c.q O.i.c u b w.q %.<.Y L.B M 0.8.+.-.< d 5 ",
"v I I q R %.@.T u u s m Y Y Y [ %._ U u s o.C D x W W +.W b s s ",
"&...q R h.# ;.v.J.C B.; ~ X B.:.V W.5 0 Y N.s.P.W q O <.E.s.I I ",
"I b.N I b.N v.8 x *.a.F.9.9 B.q 9.&.d.f 5.H y Q I N v.u g E. .W ",
"> t & x , c 8 , @ 2 & & $ & V d u i c . e % < > c r 2 < 8 b , 2 ",
"b E 3.*.8 x m b.V r y h.0 W ; %.a.q 5 m 5 H q.l.7.5.f.W f q Y ^.",
"x - E.f N.7 x N g.-.e.=.x M l R 3.u h.8.v.W w S n x c.I 6 u q 8 ",
"6 &.; a.%.9 B.% x !.5.U 9.L.x q *.<.p.` H.r.6.x K.R 8 N H.q ; ` ",
"*.+.h.x u b.x L.B.H.5 a.0.4.i.t.I q @.N C ( *.9.c % %.*.3.p.y c ",
"n.v - x *.J.9.+ 6 8 k u p k.t.p.r m %.q a.' / c %.I -.5 h.m $.9.",
"5.>.%.n 8.^.| o c W W.t.U 9 3.3.s.*.$.f 9.q $.%._ x.% ] q (.g.C.",
"Z.#.N.f /.^.x _.G a.` x I.B._.B.b.h I M.7.l U./ n J.m.q ).^.3.+.",
"I W D.9 A b.x 6 i.Q.! *.+.7 q - V 3 U < ( i l &.+.- G.1 Z z j Y.",
"K h.T.6 q J 9 #.3.b.4 E.9.; 1.j.0 (.a H H x I g p.S.3.*.h.b.y ; ",
"I q f q 8 9 N N N x m 8 m x B 8 9 ! x m s R ; m q u 9 W m x m x ",
"q 2 f c q T.H 8.B.E ..I Y.2.) ^ I A.} w.g.,./.E Z { 1 N 9.P x t."
};
